%TF.GenerationSoftware,KiCad,Pcbnew,10.0.3*%
%TF.CreationDate,2026-10-08T01:14:11+07:00*%
%TF.ProjectId,actuator-v1,61637475-6174-46f7-922d-76312e6b6963,rev?*%
%TF.SameCoordinates,Original*%
%TF.FileFunction,Copper,L2,Bot*%
%TF.FilePolarity,Positive*%
%FSLAX46Y46*%
G04 Gerber Fmt 4.6, Leading zero omitted, Abs format (unit mm)*
G04 Created by KiCad (PCBNEW 10.0.3) date 2026-10-08 01:14:11*
%MOMM*%
%LPD*%
G01*
G04 APERTURE LIST*
G04 Aperture macros list*
%AMRoundRect*
0 Rectangle with rounded corners*
0 $1 Rounding radius*
0 $2 $3 $4 $5 $6 $7 $8 $9 X,Y pos of 4 corners*
0 Add a 4 corners polygon primitive as box body*
4,1,4,$2,$3,$4,$5,$6,$7,$8,$9,$2,$3,0*
0 Add four circle primitives for the rounded corners*
1,1,$1+$1,$2,$3*
1,1,$1+$1,$4,$5*
1,1,$1+$1,$6,$7*
1,1,$1+$1,$8,$9*
0 Add four rect primitives between the rounded corners*
20,1,$1+$1,$2,$3,$4,$5,0*
20,1,$1+$1,$4,$5,$6,$7,0*
20,1,$1+$1,$6,$7,$8,$9,0*
20,1,$1+$1,$8,$9,$2,$3,0*%
G04 Aperture macros list end*
%TA.AperFunction,ComponentPad*%
%ADD10C,0.800000*%
%TD*%
%TA.AperFunction,ComponentPad*%
%ADD11C,5.400000*%
%TD*%
%TA.AperFunction,ComponentPad*%
%ADD12RoundRect,0.249999X1.550001X-0.790001X1.550001X0.790001X-1.550001X0.790001X-1.550001X-0.790001X0*%
%TD*%
%TA.AperFunction,ComponentPad*%
%ADD13O,3.600000X2.080000*%
%TD*%
%TA.AperFunction,ComponentPad*%
%ADD14RoundRect,0.249999X0.790001X1.550001X-0.790001X1.550001X-0.790001X-1.550001X0.790001X-1.550001X0*%
%TD*%
%TA.AperFunction,ComponentPad*%
%ADD15O,2.080000X3.600000*%
%TD*%
%TA.AperFunction,ComponentPad*%
%ADD16RoundRect,0.249999X-0.790001X-1.550001X0.790001X-1.550001X0.790001X1.550001X-0.790001X1.550001X0*%
%TD*%
%TA.AperFunction,ComponentPad*%
%ADD17RoundRect,0.250000X-0.725000X0.600000X-0.725000X-0.600000X0.725000X-0.600000X0.725000X0.600000X0*%
%TD*%
%TA.AperFunction,ComponentPad*%
%ADD18O,1.950000X1.700000*%
%TD*%
%TA.AperFunction,ComponentPad*%
%ADD19R,1.700000X1.700000*%
%TD*%
%TA.AperFunction,ComponentPad*%
%ADD20C,1.700000*%
%TD*%
%TA.AperFunction,SMDPad,CuDef*%
%ADD21C,1.000000*%
%TD*%
%TA.AperFunction,SMDPad,CuDef*%
%ADD22RoundRect,0.085000X-0.365000X0.340000X-0.365000X-0.340000X0.365000X-0.340000X0.365000X0.340000X0*%
%TD*%
%TA.AperFunction,ViaPad*%
%ADD23C,0.600000*%
%TD*%
%TA.AperFunction,ViaPad*%
%ADD24C,0.800000*%
%TD*%
%TA.AperFunction,Conductor*%
%ADD25C,0.300000*%
%TD*%
%TA.AperFunction,Conductor*%
%ADD26C,0.700000*%
%TD*%
%TA.AperFunction,Conductor*%
%ADD27C,0.500000*%
%TD*%
%TA.AperFunction,Conductor*%
%ADD28C,0.800000*%
%TD*%
%TA.AperFunction,Conductor*%
%ADD29C,1.000000*%
%TD*%
G04 APERTURE END LIST*
D10*
%TO.P,REF\u002A\u002A,1*%
%TO.N,N/C*%
X63043109Y-37600000D03*
X63636218Y-36168109D03*
X63636218Y-39031891D03*
X65068109Y-35575000D03*
D11*
X65068109Y-37600000D03*
D10*
X65068109Y-39625000D03*
X66500000Y-36168109D03*
X66500000Y-39031891D03*
X67093109Y-37600000D03*
%TD*%
D12*
%TO.P,J2,1,Pin_1_1*%
%TO.N,GND*%
X137150000Y-58770000D03*
D13*
%TO.P,J2,2,Pin_2_2*%
%TO.N,/TCAN3413/CAN-*%
X137150000Y-53690000D03*
%TO.P,J2,3,Pin_3_3*%
%TO.N,/TCAN3413/CAN+*%
X137150000Y-48610000D03*
%TD*%
D10*
%TO.P,REF\u002A\u002A,1*%
%TO.N,N/C*%
X63043109Y-93868109D03*
X63636218Y-92436218D03*
X63636218Y-95300000D03*
X65068109Y-91843109D03*
D11*
X65068109Y-93868109D03*
D10*
X65068109Y-95893109D03*
X66500000Y-92436218D03*
X66500000Y-95300000D03*
X67093109Y-93868109D03*
%TD*%
D14*
%TO.P,J1,1,Pin_1_1*%
%TO.N,Net-(D1-A)*%
X77850000Y-40287500D03*
D15*
%TO.P,J1,2,Pin_2_2*%
%TO.N,GND*%
X72770000Y-40287500D03*
%TD*%
D10*
%TO.P,REF\u002A\u002A,1*%
%TO.N,N/C*%
X138260000Y-37600000D03*
X138853109Y-36168109D03*
X138853109Y-39031891D03*
X140285000Y-35575000D03*
D11*
X140285000Y-37600000D03*
D10*
X140285000Y-39625000D03*
X141716891Y-36168109D03*
X141716891Y-39031891D03*
X142310000Y-37600000D03*
%TD*%
%TO.P,REF\u002A\u002A,1*%
%TO.N,N/C*%
X138260000Y-93868109D03*
X138853109Y-92436218D03*
X138853109Y-95300000D03*
X140285000Y-91843109D03*
D11*
X140285000Y-93868109D03*
D10*
X140285000Y-95893109D03*
X141716891Y-92436218D03*
X141716891Y-95300000D03*
X142310000Y-93868109D03*
%TD*%
D16*
%TO.P,J4,1,Pin_1_1*%
%TO.N,GND*%
X72150000Y-90750000D03*
D15*
%TO.P,J4,2,Pin_2_2*%
%TO.N,/MCU-STM32G0B1CBT6/ADC1_IN0*%
X77230000Y-90750000D03*
%TO.P,J4,3,Pin_3_3*%
%TO.N,/MCU-STM32G0B1CBT6/ADC1_IN1*%
X82310000Y-90750000D03*
%TO.P,J4,4,Pin_4_4*%
%TO.N,/MCU-STM32G0B1CBT6/UART_TX*%
X87390000Y-90750000D03*
%TO.P,J4,5,Pin_5_5*%
%TO.N,/MCU-STM32G0B1CBT6/UART_RX*%
X92470000Y-90750000D03*
%TO.P,J4,6,Pin_6_6*%
%TO.N,/MCU-STM32G0B1CBT6/SPI_CS*%
X97550000Y-90750000D03*
%TO.P,J4,7,Pin_7_7*%
%TO.N,/MCU-STM32G0B1CBT6/SPI_SCK*%
X102630000Y-90750000D03*
%TO.P,J4,8,Pin_8_8*%
%TO.N,/MCU-STM32G0B1CBT6/SPI_MISO*%
X107710000Y-90750000D03*
%TO.P,J4,9,Pin_9_9*%
%TO.N,/MCU-STM32G0B1CBT6/SPI_MOSI*%
X112790000Y-90750000D03*
%TO.P,J4,10,Pin_10_10*%
%TO.N,/MCU-STM32G0B1CBT6/PWM1*%
X117870000Y-90750000D03*
%TO.P,J4,11,Pin_11_11*%
%TO.N,/MCU-STM32G0B1CBT6/PWM2*%
X122950000Y-90750000D03*
%TO.P,J4,12,Pin_12_12*%
%TO.N,/MCU-STM32G0B1CBT6/I2C2_SCL*%
X128030000Y-90750000D03*
%TO.P,J4,13,Pin_13_13*%
%TO.N,/MCU-STM32G0B1CBT6/I2C2_SDA*%
X133110000Y-90750000D03*
%TD*%
D17*
%TO.P,J3,1,Pin_1_1*%
%TO.N,/MCU-STM32G0B1CBT6/KEY_COL1*%
X140720000Y-66960000D03*
D18*
%TO.P,J3,2,Pin_2_2*%
%TO.N,/MCU-STM32G0B1CBT6/KEY_COL2*%
X140720000Y-69460000D03*
%TO.P,J3,3,Pin_3_3*%
%TO.N,/MCU-STM32G0B1CBT6/KEY_COL3*%
X140720000Y-71960000D03*
%TO.P,J3,4,Pin_4_4*%
%TO.N,/MCU-STM32G0B1CBT6/KEY_ROW1*%
X140720000Y-74460000D03*
%TO.P,J3,5,Pin_5_5*%
%TO.N,/MCU-STM32G0B1CBT6/KEY_ROW2*%
X140720000Y-76960000D03*
%TO.P,J3,6,Pin_6_6*%
%TO.N,/MCU-STM32G0B1CBT6/KEY_ROW3*%
X140720000Y-79460000D03*
%TO.P,J3,7,Pin_7_7*%
%TO.N,/MCU-STM32G0B1CBT6/KEY_ROW4*%
X140720000Y-81960000D03*
%TD*%
D19*
%TO.P,J5,1,Pin_1_1*%
%TO.N,/Power5-3V3/+3V3*%
X112250000Y-57260000D03*
D20*
%TO.P,J5,2,Pin_2_2*%
%TO.N,/MCU-STM32G0B1CBT6/SWCLK{slash}BOOT0*%
X114790000Y-57260000D03*
%TO.P,J5,3,Pin_3_3*%
%TO.N,/MCU-STM32G0B1CBT6/SWDIO*%
X117330000Y-57260000D03*
%TO.P,J5,4,Pin_4_4*%
%TO.N,GND*%
X119870000Y-57260000D03*
%TD*%
D21*
%TO.P,TP3,1,1_1*%
%TO.N,/MCU-STM32G0B1CBT6/FD1_Tx*%
X107200000Y-54700000D03*
%TD*%
D22*
%TO.P,C10,1*%
%TO.N,/Power5-3V3/+3V3*%
X104510000Y-61550000D03*
%TO.P,C10,2*%
%TO.N,GND*%
X104510000Y-63100000D03*
%TD*%
%TO.P,C11,1*%
%TO.N,/Power5-3V3/+3V3*%
X103160000Y-61550000D03*
%TO.P,C11,2*%
%TO.N,GND*%
X103160000Y-63100000D03*
%TD*%
D23*
%TO.N,GND*%
X70120500Y-46420500D03*
X138150000Y-63290000D03*
X66120500Y-90420500D03*
X70120500Y-76420500D03*
X136120500Y-94420500D03*
X92843600Y-82314800D03*
X115316000Y-92420500D03*
X104120500Y-44420500D03*
X138120500Y-56420500D03*
X78120500Y-76420500D03*
X76120500Y-64420500D03*
X74120500Y-78420500D03*
X118120500Y-94420500D03*
X122120500Y-84420500D03*
X84120500Y-74420500D03*
X122200000Y-68700000D03*
X140120500Y-84420500D03*
X94120500Y-36420500D03*
X112120500Y-94420500D03*
X122120500Y-42420500D03*
X126120500Y-74420500D03*
X114120500Y-40420500D03*
X88120500Y-68420500D03*
X134120500Y-94420500D03*
X66120500Y-62420500D03*
X68120500Y-66420500D03*
X94120500Y-94420500D03*
X118120500Y-38420500D03*
X90120500Y-48420500D03*
X130120500Y-80420500D03*
X66120500Y-80420500D03*
X74120500Y-60420500D03*
X94120500Y-46420500D03*
X110120500Y-92420500D03*
X132120500Y-84420500D03*
X138120500Y-42420500D03*
X126120500Y-90420500D03*
X86120500Y-44420500D03*
X64120500Y-60420500D03*
X120120500Y-36420500D03*
X94120500Y-40420500D03*
X82120500Y-56420500D03*
X134120500Y-44420500D03*
X70120500Y-94420500D03*
X102120500Y-40420500D03*
X138120500Y-88420500D03*
X88120500Y-72420500D03*
X76900000Y-55300000D03*
X82120500Y-80420500D03*
X104120500Y-42420500D03*
X140120500Y-50420500D03*
X80120500Y-36420500D03*
X72120500Y-64420500D03*
X66120500Y-58420500D03*
X74120500Y-84420500D03*
X80120500Y-72420500D03*
X64120500Y-88420500D03*
X64120500Y-72420500D03*
X136120500Y-44420500D03*
X88843600Y-86314800D03*
X96120500Y-42420500D03*
X70120500Y-70420500D03*
X94120500Y-70420500D03*
X130120500Y-94420500D03*
X88120500Y-66420500D03*
X76120500Y-74420500D03*
X88120500Y-38420500D03*
X124120500Y-96420500D03*
X128120500Y-40420500D03*
X70120500Y-36420500D03*
X118120500Y-42420500D03*
X82120500Y-78420500D03*
X102120500Y-96420500D03*
X110120500Y-36420500D03*
X120120500Y-40420500D03*
X90843600Y-84314800D03*
X105156000Y-92420500D03*
X114120500Y-44420500D03*
X94120500Y-44420500D03*
X74120500Y-50420500D03*
X80120500Y-44420500D03*
X88120500Y-74420500D03*
X70120500Y-80420500D03*
X90120500Y-38420500D03*
X142120500Y-86420500D03*
X124120500Y-40420500D03*
X140150000Y-63290000D03*
X136120500Y-40420500D03*
X124120500Y-58420500D03*
X75000000Y-55300000D03*
X82120500Y-94420500D03*
X66120500Y-78420500D03*
X94843600Y-80314800D03*
X128120500Y-42420500D03*
X142120500Y-58420500D03*
X70120500Y-72420500D03*
X106120500Y-38420500D03*
X86120500Y-68420500D03*
X136120500Y-56420500D03*
X128120500Y-36420500D03*
X100120500Y-46420500D03*
X102120500Y-36420500D03*
X72120500Y-68420500D03*
X128120500Y-94420500D03*
X64120500Y-84420500D03*
X98120500Y-82420500D03*
X98120500Y-94420500D03*
X76120500Y-60420500D03*
X86120500Y-66420500D03*
X126120500Y-76420500D03*
X106120500Y-44420500D03*
X102120500Y-82420500D03*
X66120500Y-66420500D03*
X82120500Y-74420500D03*
X77800000Y-55300000D03*
X124120500Y-36420500D03*
X70120500Y-92420500D03*
X88120500Y-62420500D03*
X100120500Y-40420500D03*
X84120500Y-64420500D03*
X95480000Y-68970000D03*
X74120500Y-52420500D03*
X88120500Y-40420500D03*
X126120500Y-38420500D03*
X100120500Y-90420500D03*
X78120500Y-72420500D03*
X127250000Y-51720000D03*
X96120500Y-96420500D03*
X88120500Y-58420500D03*
X110120500Y-94420500D03*
X70120500Y-40420500D03*
X130120500Y-38420500D03*
X122120500Y-44420500D03*
X120120500Y-42420500D03*
X76120500Y-84420500D03*
X112120500Y-78420500D03*
X94120500Y-38420500D03*
X80120500Y-90420500D03*
X78120500Y-82420500D03*
X122120500Y-96420500D03*
X74120500Y-82420500D03*
X68120500Y-40420500D03*
X134120500Y-82420500D03*
X76120500Y-94420500D03*
X106120500Y-42420500D03*
X80120500Y-38420500D03*
X64120500Y-70420500D03*
X74120500Y-46420500D03*
X74120500Y-62420500D03*
X96316800Y-72390000D03*
X92120500Y-46420500D03*
X142120500Y-54420500D03*
X116120500Y-44420500D03*
X64120500Y-46420500D03*
X70120500Y-62420500D03*
X108120500Y-36420500D03*
X86120500Y-56420500D03*
X94120500Y-86420500D03*
X66120500Y-44420500D03*
X82120500Y-68420500D03*
X106120500Y-96420500D03*
X108120500Y-40420500D03*
X114120500Y-80420500D03*
X78120500Y-64420500D03*
X126120500Y-42420500D03*
X112120500Y-96420500D03*
X102120500Y-42420500D03*
X126120500Y-96420500D03*
X72120500Y-72420500D03*
X79500000Y-54620000D03*
X74120500Y-66420500D03*
X110120500Y-42420500D03*
X106120500Y-46420500D03*
X104120500Y-40420500D03*
X94120500Y-96420500D03*
X100120500Y-84420500D03*
X84120500Y-38420500D03*
X108120500Y-78420500D03*
X88120500Y-44420500D03*
X80120500Y-80420500D03*
X78120500Y-36420500D03*
X68120500Y-84420500D03*
X70120500Y-82420500D03*
X64120500Y-54420500D03*
X142120500Y-44420500D03*
X80120500Y-62420500D03*
X100120500Y-96420500D03*
X74120500Y-96420500D03*
X142120500Y-50420500D03*
X95148400Y-90420500D03*
X140120500Y-46420500D03*
X64120500Y-82420500D03*
X117560000Y-54650000D03*
X84766400Y-85261200D03*
X68120500Y-82420500D03*
X88120500Y-60420500D03*
X74120500Y-72420500D03*
X84120500Y-44420500D03*
X100120500Y-80420500D03*
X98120500Y-46420500D03*
X108120500Y-84420500D03*
X70120500Y-96420500D03*
X136120500Y-36420500D03*
X118120500Y-68420500D03*
X88766400Y-81261200D03*
X128120500Y-38420500D03*
X92120500Y-72420500D03*
X110120500Y-76420500D03*
X90120500Y-90420500D03*
X94132400Y-72390000D03*
X102120500Y-94420500D03*
X142120500Y-84420500D03*
X80120500Y-58420500D03*
X96120500Y-86420500D03*
X132120500Y-58420500D03*
X128120500Y-58420500D03*
X92120500Y-52420500D03*
X140120500Y-88420500D03*
X72120500Y-80420500D03*
X112120500Y-36420500D03*
X124120500Y-82420500D03*
X64120500Y-44420500D03*
X102120500Y-44420500D03*
X132120500Y-54420500D03*
X128120500Y-74420500D03*
X74120500Y-92420500D03*
X138120500Y-44420500D03*
X130120500Y-46420500D03*
X122120500Y-58420500D03*
X80120500Y-70420500D03*
X72120500Y-60420500D03*
X116120500Y-48420500D03*
X122120500Y-94420500D03*
X100120500Y-86420500D03*
X70120500Y-60420500D03*
X142120500Y-90420500D03*
X70120500Y-66420500D03*
X127490000Y-50970000D03*
X84120500Y-72420500D03*
X64120500Y-48420500D03*
X78120500Y-94420500D03*
X70120500Y-38420500D03*
X90120500Y-36420500D03*
X132120500Y-48420500D03*
X94480000Y-55630000D03*
X80120500Y-82420500D03*
X130120500Y-76420500D03*
X90120500Y-68420500D03*
X124120500Y-46420500D03*
X82120500Y-40420500D03*
X92120500Y-66420500D03*
X102230000Y-62420000D03*
X140120500Y-48420500D03*
X121300000Y-69600000D03*
X78120500Y-78420500D03*
X90120500Y-40420500D03*
X92120500Y-94420500D03*
X86120500Y-38420500D03*
X86120500Y-70420500D03*
X132120500Y-44420500D03*
X68080000Y-62420500D03*
X100120500Y-36420500D03*
X68120500Y-78420500D03*
X124120500Y-42420500D03*
X76120500Y-58420500D03*
X140120500Y-86420500D03*
X100120500Y-44420500D03*
X118120500Y-48420500D03*
X66120500Y-60420500D03*
X136120500Y-90420500D03*
X92120500Y-44420500D03*
X132120500Y-96420500D03*
X64120500Y-42420500D03*
X68120500Y-64420500D03*
X76120500Y-78420500D03*
X108120500Y-44420500D03*
X72120500Y-82420500D03*
X142120500Y-46420500D03*
X92120500Y-54420500D03*
X68120500Y-42420500D03*
X70120500Y-64420500D03*
X86120500Y-58420500D03*
X115366800Y-90420500D03*
X84120500Y-62420500D03*
X90120500Y-94420500D03*
X74120500Y-76420500D03*
X72120500Y-76420500D03*
X86120500Y-64420500D03*
X82120500Y-62420500D03*
X82120500Y-46420500D03*
X134120500Y-40420500D03*
X88120500Y-96420500D03*
X74120500Y-58420500D03*
X84120500Y-40420500D03*
X86120500Y-94420500D03*
X86120500Y-36420500D03*
X72120500Y-94420500D03*
X86120500Y-76420500D03*
X134120500Y-84420500D03*
X132120500Y-40420500D03*
X124120500Y-44420500D03*
X142120500Y-42420500D03*
X111200000Y-54700000D03*
X134120500Y-36420500D03*
X98120500Y-38420500D03*
X102120500Y-46420500D03*
X120120500Y-78420500D03*
X76120500Y-80420500D03*
X80120500Y-40420500D03*
X84120500Y-58420500D03*
X76120500Y-36420500D03*
X64120500Y-76420500D03*
X82120500Y-42420500D03*
X80120500Y-68420500D03*
X98120500Y-44420500D03*
X70120500Y-78420500D03*
X66120500Y-84420500D03*
X92766400Y-77261200D03*
X64120500Y-62420500D03*
X72120500Y-74420500D03*
X74120500Y-68420500D03*
X88120500Y-76420500D03*
X74120500Y-70420500D03*
X84120500Y-80420500D03*
X126120500Y-40420500D03*
X92120500Y-96420500D03*
X96120500Y-36420500D03*
X104120500Y-46420500D03*
X142120500Y-48420500D03*
X68120500Y-72420500D03*
X121300000Y-67400000D03*
X124120500Y-76420500D03*
X74120500Y-74420500D03*
X142120500Y-52420500D03*
X96120500Y-40420500D03*
X84120500Y-60420500D03*
X122120500Y-56420500D03*
X90120500Y-42420500D03*
X92120500Y-68420500D03*
X116120500Y-46420500D03*
X110120500Y-44420500D03*
X130120500Y-82420500D03*
X76120500Y-50420500D03*
X96843600Y-78314800D03*
X124120500Y-94420500D03*
X106120500Y-40420500D03*
X130120500Y-44420500D03*
X68120500Y-86420500D03*
X92120500Y-40420500D03*
X88800000Y-46500000D03*
X114120500Y-94420500D03*
X140120500Y-54420500D03*
X82120500Y-36420500D03*
X80120500Y-60420500D03*
X96316800Y-70358000D03*
X140120500Y-60420500D03*
X82120500Y-64420500D03*
X66120500Y-70420500D03*
X80120500Y-56420500D03*
X97190000Y-59900000D03*
X76120500Y-72420500D03*
X97970000Y-63860000D03*
X74120500Y-64420500D03*
X134120500Y-38420500D03*
X110120500Y-80420500D03*
X68120500Y-80420500D03*
X106120500Y-94420500D03*
X68120500Y-90420500D03*
X78120500Y-96420500D03*
X98120500Y-40420500D03*
X138120500Y-46420500D03*
X130120500Y-96420500D03*
X126180000Y-50540000D03*
X78120500Y-58420500D03*
X116120500Y-94420500D03*
X92120500Y-70420500D03*
X66120500Y-74420500D03*
X132120500Y-56420500D03*
X72120500Y-46420500D03*
X116120500Y-36420500D03*
X120120500Y-82420500D03*
X102120500Y-38420500D03*
X86120500Y-42420500D03*
X78120500Y-70420500D03*
X104120500Y-96420500D03*
X72120500Y-70420500D03*
X110120500Y-40420500D03*
X98120500Y-36420500D03*
X114120500Y-36420500D03*
X84120500Y-56420500D03*
X82120500Y-66420500D03*
X104120500Y-36420500D03*
X88120500Y-70420500D03*
X93660000Y-66660000D03*
X138120500Y-90420500D03*
X102120500Y-54420500D03*
X126120500Y-92420500D03*
X120120500Y-38420500D03*
X132120500Y-36420500D03*
X130120500Y-92420500D03*
X74120500Y-48420500D03*
X126120500Y-46420500D03*
X86120500Y-62420500D03*
X90120500Y-74420500D03*
X94120500Y-54420500D03*
X126120500Y-78420500D03*
X80120500Y-74420500D03*
X78600000Y-55300000D03*
X84120500Y-68420500D03*
X100120500Y-54420500D03*
X68120500Y-44420500D03*
X88400000Y-54400000D03*
X72120500Y-96420500D03*
X136120500Y-96420500D03*
X112120500Y-40420500D03*
X116120500Y-68420500D03*
X108120500Y-38420500D03*
X78120500Y-56420500D03*
X76120500Y-68420500D03*
X122120500Y-36420500D03*
X136120500Y-84420500D03*
X114120500Y-38420500D03*
X80120500Y-66420500D03*
X64120500Y-74420500D03*
X118120500Y-44420500D03*
X105156000Y-90420500D03*
X68120500Y-96420500D03*
X112000000Y-53800000D03*
X106290000Y-50650000D03*
X84120500Y-94420500D03*
X68120500Y-76420500D03*
X82120500Y-96420500D03*
X64120500Y-68420500D03*
X64120500Y-50420500D03*
X118120500Y-40420500D03*
X94437200Y-75539600D03*
X132120500Y-78420500D03*
X84937600Y-92420500D03*
X66120500Y-88420500D03*
X84120500Y-42420500D03*
X98843600Y-76314800D03*
X72120500Y-62420500D03*
X100120500Y-52420500D03*
X134120500Y-80420500D03*
X132120500Y-38420500D03*
X74120500Y-36420500D03*
X90120500Y-64420500D03*
X118120500Y-96420500D03*
X82120500Y-38420500D03*
X82120500Y-72420500D03*
X94120500Y-52420500D03*
X70120500Y-74420500D03*
X110120500Y-96420500D03*
X92120500Y-42420500D03*
X92120500Y-64420500D03*
X116120500Y-82420500D03*
X84120500Y-76420500D03*
X72120500Y-84420500D03*
X106120500Y-36420500D03*
X132120500Y-94420500D03*
X82120500Y-76420500D03*
X95148400Y-92420500D03*
X74120500Y-94420500D03*
X70120500Y-58420500D03*
X98120500Y-42420500D03*
X119560000Y-54650000D03*
X118120500Y-80420500D03*
X136120500Y-38420500D03*
X76120500Y-96420500D03*
X140120500Y-52420500D03*
X66120500Y-56420500D03*
X118120500Y-46420500D03*
X126120500Y-84420500D03*
X82120500Y-70420500D03*
X128120500Y-56420500D03*
X78120500Y-74420500D03*
X130120500Y-56420500D03*
X86120500Y-78420500D03*
X64120500Y-90420500D03*
X90766400Y-79261200D03*
X104120500Y-38420500D03*
X126120500Y-36420500D03*
X72120500Y-58420500D03*
X92120500Y-56420500D03*
X140120500Y-42420500D03*
X118120500Y-36420500D03*
X140120500Y-56420500D03*
X130120500Y-90420500D03*
X96120500Y-46420500D03*
X130120500Y-78420500D03*
X70120500Y-84420500D03*
X66120500Y-72420500D03*
X64120500Y-64420500D03*
X68120500Y-46420500D03*
X136120500Y-92420500D03*
X76120500Y-76420500D03*
X84120500Y-70420500D03*
X130120500Y-42420500D03*
X78120500Y-84420500D03*
X80120500Y-64420500D03*
X80120500Y-96420500D03*
X140120500Y-44420500D03*
X100736400Y-74320400D03*
X66120500Y-68420500D03*
X130120500Y-58420500D03*
X70120500Y-44420500D03*
X92120500Y-36420500D03*
X86120500Y-96420500D03*
X78120500Y-60420500D03*
X88120500Y-56420500D03*
X122120500Y-40420500D03*
X142120500Y-88420500D03*
X100120500Y-38420500D03*
X84120500Y-36420500D03*
X84120500Y-78420500D03*
X88120500Y-42420500D03*
X132120500Y-46420500D03*
X66120500Y-64420500D03*
X114120500Y-96420500D03*
X98120500Y-52420500D03*
X138120500Y-86420500D03*
X92120500Y-58420500D03*
X117000000Y-65600000D03*
X78120500Y-62420500D03*
X120120500Y-44420500D03*
X142120500Y-56420500D03*
X90120500Y-50420500D03*
X64120500Y-80420500D03*
X72120500Y-78420500D03*
X88400000Y-53500000D03*
X100120500Y-92420500D03*
X114120500Y-42420500D03*
X66120500Y-82420500D03*
X134120500Y-46420500D03*
X80120500Y-46420500D03*
X120120500Y-92420500D03*
X126120500Y-56420500D03*
X70120500Y-56420500D03*
X68120500Y-74420500D03*
X96120500Y-44420500D03*
X108120500Y-96420500D03*
X120120500Y-94420500D03*
X84937600Y-90420500D03*
X86120500Y-74420500D03*
X72120500Y-36420500D03*
X112120500Y-38420500D03*
X136120500Y-82420500D03*
X124120500Y-56420500D03*
X108120500Y-42420500D03*
X80120500Y-78420500D03*
X116010000Y-66490000D03*
X130120500Y-36420500D03*
X92120500Y-48420500D03*
X126120500Y-94420500D03*
X116120500Y-40420500D03*
X132120500Y-42420500D03*
X80120500Y-92420500D03*
X98120500Y-96420500D03*
X68120500Y-56420500D03*
X136120500Y-86420500D03*
X90120500Y-46420500D03*
X96120500Y-94420500D03*
X86120500Y-40420500D03*
X68120500Y-68420500D03*
X74120500Y-80420500D03*
X86766400Y-83261200D03*
X130120500Y-40420500D03*
X104120500Y-94420500D03*
X95170000Y-67360000D03*
X76120500Y-66420500D03*
X120120500Y-90420500D03*
X82120500Y-60420500D03*
X64120500Y-66420500D03*
X102120500Y-78420500D03*
X110120500Y-38420500D03*
X122120500Y-38420500D03*
X122120500Y-80420500D03*
X100120500Y-42420500D03*
X134120500Y-42420500D03*
X66120500Y-86420500D03*
X86120500Y-72420500D03*
X140120500Y-58420500D03*
X94120500Y-42420500D03*
X80120500Y-76420500D03*
X78120500Y-68420500D03*
X102120500Y-84420500D03*
X74120500Y-90420500D03*
X100120500Y-94420500D03*
X90120500Y-44420500D03*
X66120500Y-46420500D03*
X90120500Y-66420500D03*
X96120500Y-38420500D03*
X126120500Y-58420500D03*
X64120500Y-52420500D03*
X128120500Y-78420500D03*
X76120500Y-62420500D03*
X88120500Y-36420500D03*
X80120500Y-94420500D03*
X116120500Y-38420500D03*
X78120500Y-66420500D03*
X128120500Y-80420500D03*
X142120500Y-60420500D03*
X96150000Y-53830000D03*
X126120500Y-44420500D03*
X66120500Y-42420500D03*
X76120500Y-56420500D03*
X90120500Y-70420500D03*
X110120500Y-86420500D03*
X132120500Y-82420500D03*
X112120500Y-82420500D03*
X110120500Y-90420500D03*
X86120500Y-60420500D03*
X136120500Y-42420500D03*
X120120500Y-46420500D03*
X128120500Y-44420500D03*
X136120500Y-46420500D03*
X92120500Y-38420500D03*
X90120500Y-96420500D03*
X64120500Y-58420500D03*
X114120500Y-84420500D03*
X76120500Y-82420500D03*
X88120500Y-64420500D03*
X138120500Y-40420500D03*
X68120500Y-58420500D03*
X107060000Y-49690000D03*
X124120500Y-38420500D03*
X94120500Y-58420500D03*
X72120500Y-66420500D03*
X68120500Y-88420500D03*
X116120500Y-42420500D03*
X128870000Y-50680000D03*
X64120500Y-86420500D03*
X90120500Y-72420500D03*
X70120500Y-90420500D03*
X108120500Y-94420500D03*
X116120500Y-96420500D03*
X96120500Y-52420500D03*
X120120500Y-96420500D03*
X112120500Y-42420500D03*
X112120500Y-44420500D03*
X84120500Y-96420500D03*
X76120500Y-70420500D03*
X128120500Y-76420500D03*
X132120500Y-80420500D03*
X88120500Y-94420500D03*
X93590000Y-60210000D03*
X82120500Y-58420500D03*
X68080000Y-60420500D03*
X106120500Y-62420500D03*
X90120500Y-92420500D03*
X102120500Y-52420500D03*
X78120500Y-80420500D03*
X128120500Y-96420500D03*
X138120500Y-84420500D03*
X64120500Y-78420500D03*
X68120500Y-70420500D03*
X70120500Y-68420500D03*
X85300000Y-54600000D03*
X66120500Y-76420500D03*
X118120500Y-84420500D03*
X64120500Y-56420500D03*
X84120500Y-66420500D03*
X142150000Y-63290000D03*
X134120500Y-96420500D03*
X96120500Y-84420500D03*
%TO.N,/Power5-3V3/+3V3*%
X115400000Y-75300000D03*
D24*
X103600000Y-56250000D03*
D23*
X116100000Y-72250000D03*
X102170000Y-61440000D03*
X110900000Y-65850000D03*
%TO.N,/MCU-STM32G0B1CBT6/STB*%
X113740000Y-46890000D03*
X105690000Y-55930000D03*
%TO.N,/MCU-STM32G0B1CBT6/FD1_Tx*%
X107200000Y-54700000D03*
X110600000Y-49730000D03*
%TD*%
%TO.N,GND*%
D25*
X103160000Y-62590000D02*
X103160000Y-63100000D01*
X102990000Y-62420000D02*
X103160000Y-62590000D01*
X102230000Y-62420000D02*
X102990000Y-62420000D01*
%TO.N,/Power5-3V3/+3V3*%
D26*
X116600000Y-76500000D02*
X120400000Y-76500000D01*
X125100000Y-63500000D02*
X122800000Y-61200000D01*
D25*
X103140000Y-61570000D02*
X103160000Y-61550000D01*
D26*
X122275000Y-74625000D02*
X125100000Y-71800000D01*
X109770000Y-57260000D02*
X112250000Y-57260000D01*
D27*
X115900000Y-75800000D02*
X115400000Y-75300000D01*
D26*
X112250000Y-60050000D02*
X112250000Y-57260000D01*
X116250000Y-76150000D02*
X116600000Y-76500000D01*
X104510000Y-61550000D02*
X103160000Y-61550000D01*
X107460000Y-59570000D02*
X109770000Y-57260000D01*
D28*
X104500000Y-60120000D02*
X104500000Y-60550000D01*
D27*
X110900000Y-62750000D02*
X112925000Y-60725000D01*
X116650000Y-72800000D02*
X120450000Y-72800000D01*
D26*
X116250000Y-76150000D02*
X115900000Y-75800000D01*
D25*
X103160000Y-61550000D02*
X102280000Y-61550000D01*
D26*
X104510000Y-60560000D02*
X104510000Y-61550000D01*
D29*
X104500000Y-60120000D02*
X104500000Y-59570000D01*
X103600000Y-58670000D02*
X103600000Y-56250000D01*
D26*
X113400000Y-61200000D02*
X112925000Y-60725000D01*
X112925000Y-60725000D02*
X112250000Y-60050000D01*
D27*
X120450000Y-72800000D02*
X122275000Y-74625000D01*
D26*
X104510000Y-61550000D02*
X104480000Y-61520000D01*
D27*
X110900000Y-65850000D02*
X110900000Y-62750000D01*
D26*
X122800000Y-61200000D02*
X113400000Y-61200000D01*
D25*
X102280000Y-61550000D02*
X102170000Y-61440000D01*
D26*
X120400000Y-76500000D02*
X122275000Y-74625000D01*
D27*
X116100000Y-72250000D02*
X116650000Y-72800000D01*
D28*
X104500000Y-60550000D02*
X104510000Y-60560000D01*
D26*
X125100000Y-71800000D02*
X125100000Y-63500000D01*
D29*
X104500000Y-59570000D02*
X103600000Y-58670000D01*
D26*
X104500000Y-59570000D02*
X107460000Y-59570000D01*
%TO.N,/MCU-STM32G0B1CBT6/STB*%
D25*
X113460000Y-46610000D02*
X113740000Y-46890000D01*
X105690000Y-55930000D02*
X105320000Y-55560000D01*
X105320000Y-55560000D02*
X105320000Y-49220000D01*
X105320000Y-49220000D02*
X107930000Y-46610000D01*
X107930000Y-46610000D02*
X113460000Y-46610000D01*
%TO.N,/MCU-STM32G0B1CBT6/FD1_Tx*%
X110600000Y-51300000D02*
X107200000Y-54700000D01*
X110600000Y-49730000D02*
X110600000Y-51300000D01*
%TD*%
%TA.AperFunction,Conductor*%
%TO.N,GND*%
G36*
X143482539Y-34090185D02*
G01*
X143528294Y-34142989D01*
X143539500Y-34194500D01*
X143539500Y-36480723D01*
X143519815Y-36547762D01*
X143467011Y-36593517D01*
X143397853Y-36603461D01*
X143334297Y-36574436D01*
X143298459Y-36521678D01*
X143272886Y-36448598D01*
X143246536Y-36373292D01*
X143090566Y-36049418D01*
X142899315Y-35745044D01*
X142675188Y-35463997D01*
X142421003Y-35209812D01*
X142139956Y-34985685D01*
X141835582Y-34794434D01*
X141835579Y-34794432D01*
X141511711Y-34638465D01*
X141172419Y-34519741D01*
X141172407Y-34519737D01*
X140821951Y-34439748D01*
X140821935Y-34439746D01*
X140464740Y-34399500D01*
X140464736Y-34399500D01*
X140105264Y-34399500D01*
X140105259Y-34399500D01*
X139748064Y-34439746D01*
X139748048Y-34439748D01*
X139397592Y-34519737D01*
X139397580Y-34519741D01*
X139058288Y-34638465D01*
X138734420Y-34794432D01*
X138430045Y-34985684D01*
X138148997Y-35209811D01*
X137894811Y-35463997D01*
X137670684Y-35745045D01*
X137479432Y-36049420D01*
X137323465Y-36373288D01*
X137204741Y-36712580D01*
X137204737Y-36712592D01*
X137124748Y-37063048D01*
X137124746Y-37063064D01*
X137084500Y-37420259D01*
X137084500Y-37779740D01*
X137124746Y-38136935D01*
X137124748Y-38136951D01*
X137204737Y-38487407D01*
X137204741Y-38487419D01*
X137323465Y-38826711D01*
X137479432Y-39150579D01*
X137479434Y-39150582D01*
X137670685Y-39454956D01*
X137894812Y-39736003D01*
X138148997Y-39990188D01*
X138430044Y-40214315D01*
X138734418Y-40405566D01*
X139058292Y-40561536D01*
X139313119Y-40650703D01*
X139397580Y-40680258D01*
X139397592Y-40680262D01*
X139748052Y-40760252D01*
X140105260Y-40800499D01*
X140105261Y-40800500D01*
X140105264Y-40800500D01*
X140464739Y-40800500D01*
X140464739Y-40800499D01*
X140821948Y-40760252D01*
X141172408Y-40680262D01*
X141511708Y-40561536D01*
X141835582Y-40405566D01*
X142139956Y-40214315D01*
X142421003Y-39990188D01*
X142675188Y-39736003D01*
X142899315Y-39454956D01*
X143090566Y-39150582D01*
X143246536Y-38826708D01*
X143295249Y-38687495D01*
X143298459Y-38678321D01*
X143339180Y-38621545D01*
X143404133Y-38595798D01*
X143472695Y-38609254D01*
X143523097Y-38657642D01*
X143539500Y-38719276D01*
X143539500Y-92748832D01*
X143519815Y-92815871D01*
X143467011Y-92861626D01*
X143397853Y-92871570D01*
X143334297Y-92842545D01*
X143298459Y-92789787D01*
X143261802Y-92685029D01*
X143246536Y-92641401D01*
X143142556Y-92425485D01*
X143090567Y-92317529D01*
X143090485Y-92317398D01*
X142899315Y-92013153D01*
X142675188Y-91732106D01*
X142421003Y-91477921D01*
X142139956Y-91253794D01*
X141835582Y-91062543D01*
X141835579Y-91062541D01*
X141511711Y-90906574D01*
X141172419Y-90787850D01*
X141172407Y-90787846D01*
X140821951Y-90707857D01*
X140821935Y-90707855D01*
X140464740Y-90667609D01*
X140464736Y-90667609D01*
X140105264Y-90667609D01*
X140105259Y-90667609D01*
X139748064Y-90707855D01*
X139748048Y-90707857D01*
X139397592Y-90787846D01*
X139397580Y-90787850D01*
X139058288Y-90906574D01*
X138734420Y-91062541D01*
X138430045Y-91253793D01*
X138148997Y-91477920D01*
X137894811Y-91732106D01*
X137670684Y-92013154D01*
X137479432Y-92317529D01*
X137323465Y-92641397D01*
X137204741Y-92980689D01*
X137204737Y-92980701D01*
X137124748Y-93331157D01*
X137124746Y-93331173D01*
X137084500Y-93688368D01*
X137084500Y-94047849D01*
X137124746Y-94405044D01*
X137124748Y-94405060D01*
X137204737Y-94755516D01*
X137204741Y-94755528D01*
X137323465Y-95094820D01*
X137479432Y-95418688D01*
X137479434Y-95418691D01*
X137670685Y-95723065D01*
X137894812Y-96004112D01*
X138148997Y-96258297D01*
X138430044Y-96482424D01*
X138734418Y-96673675D01*
X139058292Y-96829645D01*
X139196807Y-96878113D01*
X139397841Y-96948459D01*
X139454617Y-96989180D01*
X139480364Y-97054133D01*
X139466908Y-97122695D01*
X139418520Y-97173097D01*
X139356886Y-97189500D01*
X65996223Y-97189500D01*
X65929184Y-97169815D01*
X65883429Y-97117011D01*
X65873485Y-97047853D01*
X65902510Y-96984297D01*
X65955268Y-96948459D01*
X66117683Y-96891626D01*
X66294817Y-96829645D01*
X66618691Y-96673675D01*
X66923065Y-96482424D01*
X67204112Y-96258297D01*
X67458297Y-96004112D01*
X67682424Y-95723065D01*
X67873675Y-95418691D01*
X68029645Y-95094817D01*
X68148371Y-94755517D01*
X68228361Y-94405057D01*
X68268609Y-94047845D01*
X68268609Y-93688373D01*
X68228361Y-93331161D01*
X68148371Y-92980701D01*
X68029645Y-92641401D01*
X67925665Y-92425485D01*
X67873676Y-92317529D01*
X67873594Y-92317398D01*
X67682424Y-92013153D01*
X67458297Y-91732106D01*
X67204112Y-91477921D01*
X66923065Y-91253794D01*
X66618691Y-91062543D01*
X66614156Y-91060359D01*
X66614155Y-91060358D01*
X66614154Y-91060358D01*
X66294820Y-90906574D01*
X65955528Y-90787850D01*
X65955516Y-90787846D01*
X65605060Y-90707857D01*
X65605044Y-90707855D01*
X65247849Y-90667609D01*
X65247845Y-90667609D01*
X64888373Y-90667609D01*
X64888368Y-90667609D01*
X64531173Y-90707855D01*
X64531157Y-90707857D01*
X64180701Y-90787846D01*
X64180689Y-90787850D01*
X63841397Y-90906574D01*
X63517529Y-91062541D01*
X63213154Y-91253793D01*
X62932106Y-91477920D01*
X62677920Y-91732106D01*
X62453793Y-92013154D01*
X62262541Y-92317529D01*
X62106574Y-92641397D01*
X62011541Y-92912985D01*
X61970820Y-92969761D01*
X61905867Y-92995508D01*
X61837305Y-92982052D01*
X61786902Y-92933664D01*
X61770500Y-92872030D01*
X61770500Y-89150013D01*
X70610000Y-89150013D01*
X70610000Y-90500000D01*
X71495879Y-90500000D01*
X71476901Y-90545818D01*
X71450000Y-90681056D01*
X71450000Y-90818944D01*
X71476901Y-90954182D01*
X71495879Y-91000000D01*
X70610001Y-91000000D01*
X70610001Y-92349986D01*
X70620494Y-92452696D01*
X70620494Y-92452698D01*
X70675640Y-92619119D01*
X70675645Y-92619130D01*
X70767680Y-92768340D01*
X70767683Y-92768344D01*
X70891655Y-92892316D01*
X70891659Y-92892319D01*
X71040869Y-92984354D01*
X71040880Y-92984359D01*
X71207302Y-93039505D01*
X71310019Y-93049999D01*
X71899999Y-93049999D01*
X71900000Y-93049998D01*
X71900000Y-91404120D01*
X71945818Y-91423099D01*
X72081056Y-91450000D01*
X72218944Y-91450000D01*
X72354182Y-91423099D01*
X72400000Y-91404120D01*
X72400000Y-93049999D01*
X72989972Y-93049999D01*
X72989986Y-93049998D01*
X73092696Y-93039505D01*
X73092698Y-93039505D01*
X73259119Y-92984359D01*
X73259130Y-92984354D01*
X73408340Y-92892319D01*
X73408344Y-92892316D01*
X73532316Y-92768344D01*
X73532319Y-92768340D01*
X73624354Y-92619130D01*
X73624359Y-92619119D01*
X73679505Y-92452697D01*
X73689999Y-92349986D01*
X73690000Y-92349973D01*
X73690000Y-91000000D01*
X72804121Y-91000000D01*
X72823099Y-90954182D01*
X72850000Y-90818944D01*
X72850000Y-90681056D01*
X72823099Y-90545818D01*
X72804121Y-90500000D01*
X73689999Y-90500000D01*
X73689999Y-89868754D01*
X75689500Y-89868754D01*
X75689500Y-91631245D01*
X75727432Y-91870736D01*
X75802360Y-92101344D01*
X75912448Y-92317401D01*
X76054966Y-92513562D01*
X76054970Y-92513567D01*
X76226432Y-92685029D01*
X76226437Y-92685033D01*
X76341106Y-92768344D01*
X76422602Y-92827554D01*
X76590269Y-92912985D01*
X76638655Y-92937639D01*
X76737518Y-92969761D01*
X76869265Y-93012568D01*
X76980186Y-93030136D01*
X77108755Y-93050500D01*
X77108760Y-93050500D01*
X77351245Y-93050500D01*
X77467347Y-93032110D01*
X77590735Y-93012568D01*
X77821347Y-92937638D01*
X78037398Y-92827554D01*
X78233569Y-92685028D01*
X78405028Y-92513569D01*
X78547554Y-92317398D01*
X78657638Y-92101347D01*
X78732568Y-91870735D01*
X78754525Y-91732106D01*
X78770500Y-91631245D01*
X78770500Y-89868754D01*
X80769500Y-89868754D01*
X80769500Y-91631245D01*
X80807432Y-91870736D01*
X80882360Y-92101344D01*
X80992448Y-92317401D01*
X81134966Y-92513562D01*
X81134970Y-92513567D01*
X81306432Y-92685029D01*
X81306437Y-92685033D01*
X81421106Y-92768344D01*
X81502602Y-92827554D01*
X81670269Y-92912985D01*
X81718655Y-92937639D01*
X81817518Y-92969761D01*
X81949265Y-93012568D01*
X82060186Y-93030136D01*
X82188755Y-93050500D01*
X82188760Y-93050500D01*
X82431245Y-93050500D01*
X82547347Y-93032110D01*
X82670735Y-93012568D01*
X82901347Y-92937638D01*
X83117398Y-92827554D01*
X83313569Y-92685028D01*
X83485028Y-92513569D01*
X83627554Y-92317398D01*
X83737638Y-92101347D01*
X83812568Y-91870735D01*
X83834525Y-91732106D01*
X83850500Y-91631245D01*
X83850500Y-89868754D01*
X85849500Y-89868754D01*
X85849500Y-91631245D01*
X85887432Y-91870736D01*
X85962360Y-92101344D01*
X86072448Y-92317401D01*
X86214966Y-92513562D01*
X86214970Y-92513567D01*
X86386432Y-92685029D01*
X86386437Y-92685033D01*
X86501106Y-92768344D01*
X86582602Y-92827554D01*
X86750269Y-92912985D01*
X86798655Y-92937639D01*
X86897518Y-92969761D01*
X87029265Y-93012568D01*
X87140186Y-93030136D01*
X87268755Y-93050500D01*
X87268760Y-93050500D01*
X87511245Y-93050500D01*
X87627347Y-93032110D01*
X87750735Y-93012568D01*
X87981347Y-92937638D01*
X88197398Y-92827554D01*
X88393569Y-92685028D01*
X88565028Y-92513569D01*
X88707554Y-92317398D01*
X88817638Y-92101347D01*
X88892568Y-91870735D01*
X88914525Y-91732106D01*
X88930500Y-91631245D01*
X88930500Y-89868754D01*
X90929500Y-89868754D01*
X90929500Y-91631245D01*
X90967432Y-91870736D01*
X91042360Y-92101344D01*
X91152448Y-92317401D01*
X91294966Y-92513562D01*
X91294970Y-92513567D01*
X91466432Y-92685029D01*
X91466437Y-92685033D01*
X91581106Y-92768344D01*
X91662602Y-92827554D01*
X91830269Y-92912985D01*
X91878655Y-92937639D01*
X91977518Y-92969761D01*
X92109265Y-93012568D01*
X92220186Y-93030136D01*
X92348755Y-93050500D01*
X92348760Y-93050500D01*
X92591245Y-93050500D01*
X92707347Y-93032110D01*
X92830735Y-93012568D01*
X93061347Y-92937638D01*
X93277398Y-92827554D01*
X93473569Y-92685028D01*
X93645028Y-92513569D01*
X93787554Y-92317398D01*
X93897638Y-92101347D01*
X93972568Y-91870735D01*
X93994525Y-91732106D01*
X94010500Y-91631245D01*
X94010500Y-89868754D01*
X96009500Y-89868754D01*
X96009500Y-91631245D01*
X96047432Y-91870736D01*
X96122360Y-92101344D01*
X96232448Y-92317401D01*
X96374966Y-92513562D01*
X96374970Y-92513567D01*
X96546432Y-92685029D01*
X96546437Y-92685033D01*
X96661106Y-92768344D01*
X96742602Y-92827554D01*
X96910269Y-92912985D01*
X96958655Y-92937639D01*
X97057518Y-92969761D01*
X97189265Y-93012568D01*
X97300186Y-93030136D01*
X97428755Y-93050500D01*
X97428760Y-93050500D01*
X97671245Y-93050500D01*
X97787347Y-93032110D01*
X97910735Y-93012568D01*
X98141347Y-92937638D01*
X98357398Y-92827554D01*
X98553569Y-92685028D01*
X98725028Y-92513569D01*
X98867554Y-92317398D01*
X98977638Y-92101347D01*
X99052568Y-91870735D01*
X99074525Y-91732106D01*
X99090500Y-91631245D01*
X99090500Y-89868754D01*
X101089500Y-89868754D01*
X101089500Y-91631245D01*
X101127432Y-91870736D01*
X101202360Y-92101344D01*
X101312448Y-92317401D01*
X101454966Y-92513562D01*
X101454970Y-92513567D01*
X101626432Y-92685029D01*
X101626437Y-92685033D01*
X101741106Y-92768344D01*
X101822602Y-92827554D01*
X101990269Y-92912985D01*
X102038655Y-92937639D01*
X102137518Y-92969761D01*
X102269265Y-93012568D01*
X102380186Y-93030136D01*
X102508755Y-93050500D01*
X102508760Y-93050500D01*
X102751245Y-93050500D01*
X102867347Y-93032110D01*
X102990735Y-93012568D01*
X103221347Y-92937638D01*
X103437398Y-92827554D01*
X103633569Y-92685028D01*
X103805028Y-92513569D01*
X103947554Y-92317398D01*
X104057638Y-92101347D01*
X104132568Y-91870735D01*
X104154525Y-91732106D01*
X104170500Y-91631245D01*
X104170500Y-89868754D01*
X106169500Y-89868754D01*
X106169500Y-91631245D01*
X106207432Y-91870736D01*
X106282360Y-92101344D01*
X106392448Y-92317401D01*
X106534966Y-92513562D01*
X106534970Y-92513567D01*
X106706432Y-92685029D01*
X106706437Y-92685033D01*
X106821106Y-92768344D01*
X106902602Y-92827554D01*
X107070269Y-92912985D01*
X107118655Y-92937639D01*
X107217518Y-92969761D01*
X107349265Y-93012568D01*
X107460186Y-93030136D01*
X107588755Y-93050500D01*
X107588760Y-93050500D01*
X107831245Y-93050500D01*
X107947347Y-93032110D01*
X108070735Y-93012568D01*
X108301347Y-92937638D01*
X108517398Y-92827554D01*
X108713569Y-92685028D01*
X108885028Y-92513569D01*
X109027554Y-92317398D01*
X109137638Y-92101347D01*
X109212568Y-91870735D01*
X109234525Y-91732106D01*
X109250500Y-91631245D01*
X109250500Y-89868754D01*
X111249500Y-89868754D01*
X111249500Y-91631245D01*
X111287432Y-91870736D01*
X111362360Y-92101344D01*
X111472448Y-92317401D01*
X111614966Y-92513562D01*
X111614970Y-92513567D01*
X111786432Y-92685029D01*
X111786437Y-92685033D01*
X111901106Y-92768344D01*
X111982602Y-92827554D01*
X112150269Y-92912985D01*
X112198655Y-92937639D01*
X112297518Y-92969761D01*
X112429265Y-93012568D01*
X112540186Y-93030136D01*
X112668755Y-93050500D01*
X112668760Y-93050500D01*
X112911245Y-93050500D01*
X113027347Y-93032110D01*
X113150735Y-93012568D01*
X113381347Y-92937638D01*
X113597398Y-92827554D01*
X113793569Y-92685028D01*
X113965028Y-92513569D01*
X114107554Y-92317398D01*
X114217638Y-92101347D01*
X114292568Y-91870735D01*
X114314525Y-91732106D01*
X114330500Y-91631245D01*
X114330500Y-89868754D01*
X116329500Y-89868754D01*
X116329500Y-91631245D01*
X116367432Y-91870736D01*
X116442360Y-92101344D01*
X116552448Y-92317401D01*
X116694966Y-92513562D01*
X116694970Y-92513567D01*
X116866432Y-92685029D01*
X116866437Y-92685033D01*
X116981106Y-92768344D01*
X117062602Y-92827554D01*
X117230269Y-92912985D01*
X117278655Y-92937639D01*
X117377518Y-92969761D01*
X117509265Y-93012568D01*
X117620186Y-93030136D01*
X117748755Y-93050500D01*
X117748760Y-93050500D01*
X117991245Y-93050500D01*
X118107347Y-93032110D01*
X118230735Y-93012568D01*
X118461347Y-92937638D01*
X118677398Y-92827554D01*
X118873569Y-92685028D01*
X119045028Y-92513569D01*
X119187554Y-92317398D01*
X119297638Y-92101347D01*
X119372568Y-91870735D01*
X119394525Y-91732106D01*
X119410500Y-91631245D01*
X119410500Y-89868754D01*
X121409500Y-89868754D01*
X121409500Y-91631245D01*
X121447432Y-91870736D01*
X121522360Y-92101344D01*
X121632448Y-92317401D01*
X121774966Y-92513562D01*
X121774970Y-92513567D01*
X121946432Y-92685029D01*
X121946437Y-92685033D01*
X122061106Y-92768344D01*
X122142602Y-92827554D01*
X122310269Y-92912985D01*
X122358655Y-92937639D01*
X122457518Y-92969761D01*
X122589265Y-93012568D01*
X122700186Y-93030136D01*
X122828755Y-93050500D01*
X122828760Y-93050500D01*
X123071245Y-93050500D01*
X123187347Y-93032110D01*
X123310735Y-93012568D01*
X123541347Y-92937638D01*
X123757398Y-92827554D01*
X123953569Y-92685028D01*
X124125028Y-92513569D01*
X124267554Y-92317398D01*
X124377638Y-92101347D01*
X124452568Y-91870735D01*
X124474525Y-91732106D01*
X124490500Y-91631245D01*
X124490500Y-89868754D01*
X126489500Y-89868754D01*
X126489500Y-91631245D01*
X126527432Y-91870736D01*
X126602360Y-92101344D01*
X126712448Y-92317401D01*
X126854966Y-92513562D01*
X126854970Y-92513567D01*
X127026432Y-92685029D01*
X127026437Y-92685033D01*
X127141106Y-92768344D01*
X127222602Y-92827554D01*
X127390269Y-92912985D01*
X127438655Y-92937639D01*
X127537518Y-92969761D01*
X127669265Y-93012568D01*
X127780186Y-93030136D01*
X127908755Y-93050500D01*
X127908760Y-93050500D01*
X128151245Y-93050500D01*
X128267347Y-93032110D01*
X128390735Y-93012568D01*
X128621347Y-92937638D01*
X128837398Y-92827554D01*
X129033569Y-92685028D01*
X129205028Y-92513569D01*
X129347554Y-92317398D01*
X129457638Y-92101347D01*
X129532568Y-91870735D01*
X129554525Y-91732106D01*
X129570500Y-91631245D01*
X129570500Y-89868754D01*
X131569500Y-89868754D01*
X131569500Y-91631245D01*
X131607432Y-91870736D01*
X131682360Y-92101344D01*
X131792448Y-92317401D01*
X131934966Y-92513562D01*
X131934970Y-92513567D01*
X132106432Y-92685029D01*
X132106437Y-92685033D01*
X132221106Y-92768344D01*
X132302602Y-92827554D01*
X132470269Y-92912985D01*
X132518655Y-92937639D01*
X132617518Y-92969761D01*
X132749265Y-93012568D01*
X132860186Y-93030136D01*
X132988755Y-93050500D01*
X132988760Y-93050500D01*
X133231245Y-93050500D01*
X133347347Y-93032110D01*
X133470735Y-93012568D01*
X133701347Y-92937638D01*
X133917398Y-92827554D01*
X134113569Y-92685028D01*
X134285028Y-92513569D01*
X134427554Y-92317398D01*
X134537638Y-92101347D01*
X134612568Y-91870735D01*
X134634525Y-91732106D01*
X134650500Y-91631245D01*
X134650500Y-89868754D01*
X134628432Y-89729431D01*
X134612568Y-89629265D01*
X134537638Y-89398653D01*
X134427554Y-89182602D01*
X134329254Y-89047303D01*
X134285033Y-88986437D01*
X134285029Y-88986432D01*
X134113567Y-88814970D01*
X134113562Y-88814966D01*
X133917401Y-88672448D01*
X133917400Y-88672447D01*
X133917398Y-88672446D01*
X133790288Y-88607680D01*
X133701344Y-88562360D01*
X133470736Y-88487432D01*
X133231245Y-88449500D01*
X133231240Y-88449500D01*
X132988760Y-88449500D01*
X132988755Y-88449500D01*
X132749263Y-88487432D01*
X132518655Y-88562360D01*
X132302598Y-88672448D01*
X132106437Y-88814966D01*
X132106432Y-88814970D01*
X131934970Y-88986432D01*
X131934966Y-88986437D01*
X131792448Y-89182598D01*
X131682360Y-89398655D01*
X131607432Y-89629263D01*
X131569500Y-89868754D01*
X129570500Y-89868754D01*
X129548432Y-89729431D01*
X129532568Y-89629265D01*
X129457638Y-89398653D01*
X129347554Y-89182602D01*
X129249254Y-89047303D01*
X129205033Y-88986437D01*
X129205029Y-88986432D01*
X129033567Y-88814970D01*
X129033562Y-88814966D01*
X128837401Y-88672448D01*
X128837400Y-88672447D01*
X128837398Y-88672446D01*
X128710288Y-88607680D01*
X128621344Y-88562360D01*
X128390736Y-88487432D01*
X128151245Y-88449500D01*
X128151240Y-88449500D01*
X127908760Y-88449500D01*
X127908755Y-88449500D01*
X127669263Y-88487432D01*
X127438655Y-88562360D01*
X127222598Y-88672448D01*
X127026437Y-88814966D01*
X127026432Y-88814970D01*
X126854970Y-88986432D01*
X126854966Y-88986437D01*
X126712448Y-89182598D01*
X126602360Y-89398655D01*
X126527432Y-89629263D01*
X126489500Y-89868754D01*
X124490500Y-89868754D01*
X124468432Y-89729431D01*
X124452568Y-89629265D01*
X124377638Y-89398653D01*
X124267554Y-89182602D01*
X124169254Y-89047303D01*
X124125033Y-88986437D01*
X124125029Y-88986432D01*
X123953567Y-88814970D01*
X123953562Y-88814966D01*
X123757401Y-88672448D01*
X123757400Y-88672447D01*
X123757398Y-88672446D01*
X123630288Y-88607680D01*
X123541344Y-88562360D01*
X123310736Y-88487432D01*
X123071245Y-88449500D01*
X123071240Y-88449500D01*
X122828760Y-88449500D01*
X122828755Y-88449500D01*
X122589263Y-88487432D01*
X122358655Y-88562360D01*
X122142598Y-88672448D01*
X121946437Y-88814966D01*
X121946432Y-88814970D01*
X121774970Y-88986432D01*
X121774966Y-88986437D01*
X121632448Y-89182598D01*
X121522360Y-89398655D01*
X121447432Y-89629263D01*
X121409500Y-89868754D01*
X119410500Y-89868754D01*
X119388432Y-89729431D01*
X119372568Y-89629265D01*
X119297638Y-89398653D01*
X119187554Y-89182602D01*
X119089254Y-89047303D01*
X119045033Y-88986437D01*
X119045029Y-88986432D01*
X118873567Y-88814970D01*
X118873562Y-88814966D01*
X118677401Y-88672448D01*
X118677400Y-88672447D01*
X118677398Y-88672446D01*
X118550288Y-88607680D01*
X118461344Y-88562360D01*
X118230736Y-88487432D01*
X117991245Y-88449500D01*
X117991240Y-88449500D01*
X117748760Y-88449500D01*
X117748755Y-88449500D01*
X117509263Y-88487432D01*
X117278655Y-88562360D01*
X117062598Y-88672448D01*
X116866437Y-88814966D01*
X116866432Y-88814970D01*
X116694970Y-88986432D01*
X116694966Y-88986437D01*
X116552448Y-89182598D01*
X116442360Y-89398655D01*
X116367432Y-89629263D01*
X116329500Y-89868754D01*
X114330500Y-89868754D01*
X114308432Y-89729431D01*
X114292568Y-89629265D01*
X114217638Y-89398653D01*
X114107554Y-89182602D01*
X114009254Y-89047303D01*
X113965033Y-88986437D01*
X113965029Y-88986432D01*
X113793567Y-88814970D01*
X113793562Y-88814966D01*
X113597401Y-88672448D01*
X113597400Y-88672447D01*
X113597398Y-88672446D01*
X113470288Y-88607680D01*
X113381344Y-88562360D01*
X113150736Y-88487432D01*
X112911245Y-88449500D01*
X112911240Y-88449500D01*
X112668760Y-88449500D01*
X112668755Y-88449500D01*
X112429263Y-88487432D01*
X112198655Y-88562360D01*
X111982598Y-88672448D01*
X111786437Y-88814966D01*
X111786432Y-88814970D01*
X111614970Y-88986432D01*
X111614966Y-88986437D01*
X111472448Y-89182598D01*
X111362360Y-89398655D01*
X111287432Y-89629263D01*
X111249500Y-89868754D01*
X109250500Y-89868754D01*
X109228432Y-89729431D01*
X109212568Y-89629265D01*
X109137638Y-89398653D01*
X109027554Y-89182602D01*
X108929254Y-89047303D01*
X108885033Y-88986437D01*
X108885029Y-88986432D01*
X108713567Y-88814970D01*
X108713562Y-88814966D01*
X108517401Y-88672448D01*
X108517400Y-88672447D01*
X108517398Y-88672446D01*
X108390288Y-88607680D01*
X108301344Y-88562360D01*
X108070736Y-88487432D01*
X107831245Y-88449500D01*
X107831240Y-88449500D01*
X107588760Y-88449500D01*
X107588755Y-88449500D01*
X107349263Y-88487432D01*
X107118655Y-88562360D01*
X106902598Y-88672448D01*
X106706437Y-88814966D01*
X106706432Y-88814970D01*
X106534970Y-88986432D01*
X106534966Y-88986437D01*
X106392448Y-89182598D01*
X106282360Y-89398655D01*
X106207432Y-89629263D01*
X106169500Y-89868754D01*
X104170500Y-89868754D01*
X104148432Y-89729431D01*
X104132568Y-89629265D01*
X104057638Y-89398653D01*
X103947554Y-89182602D01*
X103849254Y-89047303D01*
X103805033Y-88986437D01*
X103805029Y-88986432D01*
X103633567Y-88814970D01*
X103633562Y-88814966D01*
X103437401Y-88672448D01*
X103437400Y-88672447D01*
X103437398Y-88672446D01*
X103310288Y-88607680D01*
X103221344Y-88562360D01*
X102990736Y-88487432D01*
X102751245Y-88449500D01*
X102751240Y-88449500D01*
X102508760Y-88449500D01*
X102508755Y-88449500D01*
X102269263Y-88487432D01*
X102038655Y-88562360D01*
X101822598Y-88672448D01*
X101626437Y-88814966D01*
X101626432Y-88814970D01*
X101454970Y-88986432D01*
X101454966Y-88986437D01*
X101312448Y-89182598D01*
X101202360Y-89398655D01*
X101127432Y-89629263D01*
X101089500Y-89868754D01*
X99090500Y-89868754D01*
X99068432Y-89729431D01*
X99052568Y-89629265D01*
X98977638Y-89398653D01*
X98867554Y-89182602D01*
X98769254Y-89047303D01*
X98725033Y-88986437D01*
X98725029Y-88986432D01*
X98553567Y-88814970D01*
X98553562Y-88814966D01*
X98357401Y-88672448D01*
X98357400Y-88672447D01*
X98357398Y-88672446D01*
X98230288Y-88607680D01*
X98141344Y-88562360D01*
X97910736Y-88487432D01*
X97671245Y-88449500D01*
X97671240Y-88449500D01*
X97428760Y-88449500D01*
X97428755Y-88449500D01*
X97189263Y-88487432D01*
X96958655Y-88562360D01*
X96742598Y-88672448D01*
X96546437Y-88814966D01*
X96546432Y-88814970D01*
X96374970Y-88986432D01*
X96374966Y-88986437D01*
X96232448Y-89182598D01*
X96122360Y-89398655D01*
X96047432Y-89629263D01*
X96009500Y-89868754D01*
X94010500Y-89868754D01*
X93988432Y-89729431D01*
X93972568Y-89629265D01*
X93897638Y-89398653D01*
X93787554Y-89182602D01*
X93689254Y-89047303D01*
X93645033Y-88986437D01*
X93645029Y-88986432D01*
X93473567Y-88814970D01*
X93473562Y-88814966D01*
X93277401Y-88672448D01*
X93277400Y-88672447D01*
X93277398Y-88672446D01*
X93150288Y-88607680D01*
X93061344Y-88562360D01*
X92830736Y-88487432D01*
X92591245Y-88449500D01*
X92591240Y-88449500D01*
X92348760Y-88449500D01*
X92348755Y-88449500D01*
X92109263Y-88487432D01*
X91878655Y-88562360D01*
X91662598Y-88672448D01*
X91466437Y-88814966D01*
X91466432Y-88814970D01*
X91294970Y-88986432D01*
X91294966Y-88986437D01*
X91152448Y-89182598D01*
X91042360Y-89398655D01*
X90967432Y-89629263D01*
X90929500Y-89868754D01*
X88930500Y-89868754D01*
X88908432Y-89729431D01*
X88892568Y-89629265D01*
X88817638Y-89398653D01*
X88707554Y-89182602D01*
X88609254Y-89047303D01*
X88565033Y-88986437D01*
X88565029Y-88986432D01*
X88393567Y-88814970D01*
X88393562Y-88814966D01*
X88197401Y-88672448D01*
X88197400Y-88672447D01*
X88197398Y-88672446D01*
X88070288Y-88607680D01*
X87981344Y-88562360D01*
X87750736Y-88487432D01*
X87511245Y-88449500D01*
X87511240Y-88449500D01*
X87268760Y-88449500D01*
X87268755Y-88449500D01*
X87029263Y-88487432D01*
X86798655Y-88562360D01*
X86582598Y-88672448D01*
X86386437Y-88814966D01*
X86386432Y-88814970D01*
X86214970Y-88986432D01*
X86214966Y-88986437D01*
X86072448Y-89182598D01*
X85962360Y-89398655D01*
X85887432Y-89629263D01*
X85849500Y-89868754D01*
X83850500Y-89868754D01*
X83828432Y-89729431D01*
X83812568Y-89629265D01*
X83737638Y-89398653D01*
X83627554Y-89182602D01*
X83529254Y-89047303D01*
X83485033Y-88986437D01*
X83485029Y-88986432D01*
X83313567Y-88814970D01*
X83313562Y-88814966D01*
X83117401Y-88672448D01*
X83117400Y-88672447D01*
X83117398Y-88672446D01*
X82990288Y-88607680D01*
X82901344Y-88562360D01*
X82670736Y-88487432D01*
X82431245Y-88449500D01*
X82431240Y-88449500D01*
X82188760Y-88449500D01*
X82188755Y-88449500D01*
X81949263Y-88487432D01*
X81718655Y-88562360D01*
X81502598Y-88672448D01*
X81306437Y-88814966D01*
X81306432Y-88814970D01*
X81134970Y-88986432D01*
X81134966Y-88986437D01*
X80992448Y-89182598D01*
X80882360Y-89398655D01*
X80807432Y-89629263D01*
X80769500Y-89868754D01*
X78770500Y-89868754D01*
X78748432Y-89729431D01*
X78732568Y-89629265D01*
X78657638Y-89398653D01*
X78547554Y-89182602D01*
X78449254Y-89047303D01*
X78405033Y-88986437D01*
X78405029Y-88986432D01*
X78233567Y-88814970D01*
X78233562Y-88814966D01*
X78037401Y-88672448D01*
X78037400Y-88672447D01*
X78037398Y-88672446D01*
X77910288Y-88607680D01*
X77821344Y-88562360D01*
X77590736Y-88487432D01*
X77351245Y-88449500D01*
X77351240Y-88449500D01*
X77108760Y-88449500D01*
X77108755Y-88449500D01*
X76869263Y-88487432D01*
X76638655Y-88562360D01*
X76422598Y-88672448D01*
X76226437Y-88814966D01*
X76226432Y-88814970D01*
X76054970Y-88986432D01*
X76054966Y-88986437D01*
X75912448Y-89182598D01*
X75802360Y-89398655D01*
X75727432Y-89629263D01*
X75689500Y-89868754D01*
X73689999Y-89868754D01*
X73689999Y-89150028D01*
X73689998Y-89150013D01*
X73679505Y-89047303D01*
X73679505Y-89047301D01*
X73624359Y-88880880D01*
X73624354Y-88880869D01*
X73532319Y-88731659D01*
X73532316Y-88731655D01*
X73408344Y-88607683D01*
X73408340Y-88607680D01*
X73259130Y-88515645D01*
X73259119Y-88515640D01*
X73092697Y-88460494D01*
X72989986Y-88450000D01*
X72400000Y-88450000D01*
X72400000Y-90095879D01*
X72354182Y-90076901D01*
X72218944Y-90050000D01*
X72081056Y-90050000D01*
X71945818Y-90076901D01*
X71900000Y-90095879D01*
X71900000Y-88450000D01*
X71310028Y-88450000D01*
X71310012Y-88450001D01*
X71207303Y-88460494D01*
X71207301Y-88460494D01*
X71040880Y-88515640D01*
X71040869Y-88515645D01*
X70891659Y-88607680D01*
X70891655Y-88607683D01*
X70767683Y-88731655D01*
X70767680Y-88731659D01*
X70675645Y-88880869D01*
X70675640Y-88880880D01*
X70620494Y-89047302D01*
X70610000Y-89150013D01*
X61770500Y-89150013D01*
X61770500Y-63478344D01*
X102210000Y-63478344D01*
X102225056Y-63592714D01*
X102225058Y-63592719D01*
X102284000Y-63735019D01*
X102284000Y-63735020D01*
X102377773Y-63857226D01*
X102499980Y-63950999D01*
X102642280Y-64009941D01*
X102642285Y-64009943D01*
X102756655Y-64025000D01*
X102910000Y-64025000D01*
X103410000Y-64025000D01*
X103563345Y-64025000D01*
X103677714Y-64009943D01*
X103677716Y-64009942D01*
X103787547Y-63964449D01*
X103857016Y-63956980D01*
X103882453Y-63964449D01*
X103992283Y-64009942D01*
X103992285Y-64009943D01*
X104106655Y-64025000D01*
X104260000Y-64025000D01*
X104760000Y-64025000D01*
X104913345Y-64025000D01*
X105027714Y-64009943D01*
X105027719Y-64009941D01*
X105170019Y-63950999D01*
X105170020Y-63950999D01*
X105292226Y-63857226D01*
X105385999Y-63735020D01*
X105385999Y-63735019D01*
X105444941Y-63592719D01*
X105444943Y-63592714D01*
X105460000Y-63478344D01*
X105460000Y-63350000D01*
X104760000Y-63350000D01*
X104760000Y-64025000D01*
X104260000Y-64025000D01*
X104260000Y-63350000D01*
X103410000Y-63350000D01*
X103410000Y-64025000D01*
X102910000Y-64025000D01*
X102910000Y-63350000D01*
X102210000Y-63350000D01*
X102210000Y-63478344D01*
X61770500Y-63478344D01*
X61770500Y-61361153D01*
X101369500Y-61361153D01*
X101369500Y-61518846D01*
X101400261Y-61673489D01*
X101400264Y-61673501D01*
X101460602Y-61819172D01*
X101460609Y-61819185D01*
X101548210Y-61950288D01*
X101548213Y-61950292D01*
X101659707Y-62061786D01*
X101659711Y-62061789D01*
X101790814Y-62149390D01*
X101790827Y-62149397D01*
X101877441Y-62185273D01*
X101936503Y-62209737D01*
X102091153Y-62240499D01*
X102091156Y-62240500D01*
X102204803Y-62240500D01*
X102271842Y-62260185D01*
X102317597Y-62312989D01*
X102327541Y-62382147D01*
X102303178Y-62439987D01*
X102284003Y-62464975D01*
X102284000Y-62464980D01*
X102225058Y-62607280D01*
X102225056Y-62607285D01*
X102210000Y-62721655D01*
X102210000Y-62850000D01*
X105460000Y-62850000D01*
X105460000Y-62721655D01*
X105444943Y-62607285D01*
X105444941Y-62607280D01*
X105385999Y-62464980D01*
X105385996Y-62464975D01*
X105336826Y-62400895D01*
X105311632Y-62335726D01*
X105325670Y-62267281D01*
X105336817Y-62249935D01*
X105386433Y-62185276D01*
X105445429Y-62042846D01*
X105460500Y-61928373D01*
X105460499Y-61171628D01*
X105445429Y-61057154D01*
X105386433Y-60914724D01*
X105383323Y-60907215D01*
X105385369Y-60906367D01*
X105371624Y-60849699D01*
X105375244Y-60828747D01*
X105374707Y-60828641D01*
X105410499Y-60648696D01*
X105410500Y-60648693D01*
X105410500Y-60560956D01*
X105412126Y-60552780D01*
X105411210Y-60547703D01*
X105419938Y-60513505D01*
X105426754Y-60497049D01*
X105470594Y-60442645D01*
X105536888Y-60420579D01*
X105541316Y-60420500D01*
X107543768Y-60420500D01*
X107543769Y-60420499D01*
X107598538Y-60409605D01*
X107708074Y-60387818D01*
X107708078Y-60387816D01*
X107708082Y-60387816D01*
X107753415Y-60369037D01*
X107862863Y-60323704D01*
X108002162Y-60230627D01*
X110085969Y-58146818D01*
X110147292Y-58113334D01*
X110173650Y-58110500D01*
X110783023Y-58110500D01*
X110850062Y-58130185D01*
X110895817Y-58182989D01*
X110903266Y-58210134D01*
X110904124Y-58209932D01*
X110905907Y-58217479D01*
X110956202Y-58352328D01*
X110956206Y-58352335D01*
X111042452Y-58467544D01*
X111042455Y-58467547D01*
X111157664Y-58553793D01*
X111157671Y-58553797D01*
X111292517Y-58604091D01*
X111300062Y-58605874D01*
X111299523Y-58608151D01*
X111353287Y-58630408D01*
X111393147Y-58687793D01*
X111399500Y-58726975D01*
X111399500Y-60133771D01*
X111418766Y-60230627D01*
X111432182Y-60298073D01*
X111432185Y-60298085D01*
X111496296Y-60452863D01*
X111496297Y-60452866D01*
X111589372Y-60592161D01*
X111589375Y-60592165D01*
X111705239Y-60708029D01*
X111738724Y-60769352D01*
X111733740Y-60839044D01*
X111705239Y-60883391D01*
X110317047Y-62271584D01*
X110304995Y-62289622D01*
X110292995Y-62307583D01*
X110289383Y-62312989D01*
X110234914Y-62394507D01*
X110178343Y-62531082D01*
X110178340Y-62531092D01*
X110149500Y-62676079D01*
X110149500Y-65545396D01*
X110140062Y-65592844D01*
X110130263Y-65616503D01*
X110130262Y-65616506D01*
X110130260Y-65616511D01*
X110099500Y-65771153D01*
X110099500Y-65928846D01*
X110130261Y-66083489D01*
X110130264Y-66083501D01*
X110190602Y-66229172D01*
X110190609Y-66229185D01*
X110278210Y-66360288D01*
X110278213Y-66360292D01*
X110389707Y-66471786D01*
X110389711Y-66471789D01*
X110520814Y-66559390D01*
X110520827Y-66559397D01*
X110666498Y-66619735D01*
X110666503Y-66619737D01*
X110821153Y-66650499D01*
X110821156Y-66650500D01*
X110821158Y-66650500D01*
X110978844Y-66650500D01*
X110978845Y-66650499D01*
X111133497Y-66619737D01*
X111279179Y-66559394D01*
X111410289Y-66471789D01*
X111521789Y-66360289D01*
X111609394Y-66229179D01*
X111669737Y-66083497D01*
X111700500Y-65928842D01*
X111700500Y-65771158D01*
X111700500Y-65771155D01*
X111700499Y-65771153D01*
X111669739Y-65616511D01*
X111669738Y-65616508D01*
X111669737Y-65616503D01*
X111659937Y-65592844D01*
X111650500Y-65545396D01*
X111650500Y-63112228D01*
X111670185Y-63045189D01*
X111686814Y-63024551D01*
X112781626Y-61929739D01*
X112842947Y-61896256D01*
X112912639Y-61901240D01*
X112938194Y-61914318D01*
X112997137Y-61953703D01*
X113151918Y-62017816D01*
X113316228Y-62050499D01*
X113316232Y-62050500D01*
X113316233Y-62050500D01*
X122396349Y-62050500D01*
X122463388Y-62070185D01*
X122484030Y-62086819D01*
X124213181Y-63815969D01*
X124246666Y-63877292D01*
X124249500Y-63903650D01*
X124249500Y-71396348D01*
X124229815Y-71463387D01*
X124213181Y-71484029D01*
X122291970Y-73405239D01*
X122230647Y-73438724D01*
X122160955Y-73433740D01*
X122116608Y-73405239D01*
X120928421Y-72217052D01*
X120928414Y-72217046D01*
X120854729Y-72167812D01*
X120854729Y-72167813D01*
X120805491Y-72134913D01*
X120668917Y-72078343D01*
X120668907Y-72078340D01*
X120523920Y-72049500D01*
X120523918Y-72049500D01*
X117012229Y-72049500D01*
X116982788Y-72040855D01*
X116952802Y-72034332D01*
X116947786Y-72030577D01*
X116945190Y-72029815D01*
X116924548Y-72013181D01*
X116846072Y-71934705D01*
X116819191Y-71894473D01*
X116809397Y-71870828D01*
X116809396Y-71870826D01*
X116809394Y-71870821D01*
X116780324Y-71827315D01*
X116721789Y-71739710D01*
X116610292Y-71628213D01*
X116610288Y-71628210D01*
X116479185Y-71540609D01*
X116479172Y-71540602D01*
X116333501Y-71480264D01*
X116333489Y-71480261D01*
X116178845Y-71449500D01*
X116178842Y-71449500D01*
X116021158Y-71449500D01*
X116021155Y-71449500D01*
X115866510Y-71480261D01*
X115866498Y-71480264D01*
X115720827Y-71540602D01*
X115720814Y-71540609D01*
X115589711Y-71628210D01*
X115589707Y-71628213D01*
X115478213Y-71739707D01*
X115478210Y-71739711D01*
X115390609Y-71870814D01*
X115390602Y-71870827D01*
X115330264Y-72016498D01*
X115330261Y-72016510D01*
X115299500Y-72171153D01*
X115299500Y-72328846D01*
X115330261Y-72483489D01*
X115330264Y-72483501D01*
X115390602Y-72629172D01*
X115390609Y-72629185D01*
X115478210Y-72760288D01*
X115478213Y-72760292D01*
X115589710Y-72871789D01*
X115677315Y-72930324D01*
X115720821Y-72959394D01*
X115720826Y-72959396D01*
X115720828Y-72959397D01*
X115744473Y-72969191D01*
X115784705Y-72996072D01*
X116067048Y-73278415D01*
X116067049Y-73278416D01*
X116171584Y-73382951D01*
X116171585Y-73382952D01*
X116294498Y-73465080D01*
X116294511Y-73465087D01*
X116431082Y-73521656D01*
X116431087Y-73521658D01*
X116431091Y-73521658D01*
X116431092Y-73521659D01*
X116576079Y-73550500D01*
X116576082Y-73550500D01*
X120087770Y-73550500D01*
X120154809Y-73570185D01*
X120175451Y-73586819D01*
X121055240Y-74466608D01*
X121088725Y-74527931D01*
X121083741Y-74597623D01*
X121055240Y-74641970D01*
X120084030Y-75613181D01*
X120022707Y-75646666D01*
X119996349Y-75649500D01*
X117003651Y-75649500D01*
X116974210Y-75640855D01*
X116944224Y-75634332D01*
X116939208Y-75630577D01*
X116936612Y-75629815D01*
X116915970Y-75613181D01*
X116792162Y-75489373D01*
X116442165Y-75139375D01*
X116442161Y-75139372D01*
X116302866Y-75046297D01*
X116179515Y-74995204D01*
X116125112Y-74951363D01*
X116112406Y-74928094D01*
X116109394Y-74920822D01*
X116109394Y-74920821D01*
X116109389Y-74920814D01*
X116021789Y-74789710D01*
X115910292Y-74678213D01*
X115910288Y-74678210D01*
X115779185Y-74590609D01*
X115779172Y-74590602D01*
X115633501Y-74530264D01*
X115633489Y-74530261D01*
X115478845Y-74499500D01*
X115478842Y-74499500D01*
X115321158Y-74499500D01*
X115321155Y-74499500D01*
X115166510Y-74530261D01*
X115166498Y-74530264D01*
X115020827Y-74590602D01*
X115020814Y-74590609D01*
X114889711Y-74678210D01*
X114889707Y-74678213D01*
X114778213Y-74789707D01*
X114778210Y-74789711D01*
X114690609Y-74920814D01*
X114690602Y-74920827D01*
X114630264Y-75066498D01*
X114630261Y-75066510D01*
X114599500Y-75221153D01*
X114599500Y-75378846D01*
X114630261Y-75533489D01*
X114630264Y-75533501D01*
X114690602Y-75679172D01*
X114690609Y-75679185D01*
X114778210Y-75810288D01*
X114778213Y-75810292D01*
X114889710Y-75921789D01*
X115020815Y-76009390D01*
X115020821Y-76009394D01*
X115028095Y-76012407D01*
X115082498Y-76056247D01*
X115095204Y-76079515D01*
X115146297Y-76202866D01*
X115239372Y-76342161D01*
X115239375Y-76342165D01*
X115589373Y-76692162D01*
X116057834Y-77160624D01*
X116057838Y-77160627D01*
X116197137Y-77253704D01*
X116197139Y-77253705D01*
X116197143Y-77253707D01*
X116279222Y-77287703D01*
X116306584Y-77299037D01*
X116351918Y-77317816D01*
X116516228Y-77350499D01*
X116516232Y-77350500D01*
X116516233Y-77350500D01*
X120483768Y-77350500D01*
X120483769Y-77350499D01*
X120538538Y-77339605D01*
X120648074Y-77317818D01*
X120648078Y-77317816D01*
X120648082Y-77317816D01*
X120693415Y-77299037D01*
X120802863Y-77253704D01*
X120942162Y-77160627D01*
X122806952Y-75295834D01*
X122806957Y-75295831D01*
X122817160Y-75285627D01*
X122817162Y-75285627D01*
X125760626Y-72342162D01*
X125853703Y-72202863D01*
X125917816Y-72048082D01*
X125950500Y-71883767D01*
X125950500Y-66309983D01*
X139244500Y-66309983D01*
X139244500Y-67610001D01*
X139244501Y-67610018D01*
X139255000Y-67712796D01*
X139255001Y-67712799D01*
X139310185Y-67879331D01*
X139310187Y-67879336D01*
X139402289Y-68028657D01*
X139526344Y-68152712D01*
X139681120Y-68248178D01*
X139727845Y-68300126D01*
X139739068Y-68369088D01*
X139711224Y-68433171D01*
X139703706Y-68441398D01*
X139564889Y-68580215D01*
X139439951Y-68752179D01*
X139343444Y-68941585D01*
X139277753Y-69143760D01*
X139244500Y-69353713D01*
X139244500Y-69566286D01*
X139277753Y-69776239D01*
X139343444Y-69978414D01*
X139439951Y-70167820D01*
X139564890Y-70339786D01*
X139715209Y-70490105D01*
X139715214Y-70490109D01*
X139879793Y-70609682D01*
X139922459Y-70665011D01*
X139928438Y-70734625D01*
X139895833Y-70796420D01*
X139879793Y-70810318D01*
X139715214Y-70929890D01*
X139715209Y-70929894D01*
X139564890Y-71080213D01*
X139439951Y-71252179D01*
X139343444Y-71441585D01*
X139277753Y-71643760D01*
X139262557Y-71739707D01*
X139244500Y-71853713D01*
X139244500Y-72066287D01*
X139254534Y-72129644D01*
X139266131Y-72202863D01*
X139277754Y-72276243D01*
X139299172Y-72342162D01*
X139343444Y-72478414D01*
X139439951Y-72667820D01*
X139564890Y-72839786D01*
X139715209Y-72990105D01*
X139715214Y-72990109D01*
X139879793Y-73109682D01*
X139922459Y-73165011D01*
X139928438Y-73234625D01*
X139895833Y-73296420D01*
X139879793Y-73310318D01*
X139715214Y-73429890D01*
X139715209Y-73429894D01*
X139564890Y-73580213D01*
X139439951Y-73752179D01*
X139343444Y-73941585D01*
X139277753Y-74143760D01*
X139244500Y-74353713D01*
X139244500Y-74566287D01*
X139277754Y-74776243D01*
X139334654Y-74951363D01*
X139343444Y-74978414D01*
X139439951Y-75167820D01*
X139564890Y-75339786D01*
X139715209Y-75490105D01*
X139715214Y-75490109D01*
X139879793Y-75609682D01*
X139922459Y-75665011D01*
X139928438Y-75734625D01*
X139895833Y-75796420D01*
X139879793Y-75810318D01*
X139715214Y-75929890D01*
X139715209Y-75929894D01*
X139564890Y-76080213D01*
X139439951Y-76252179D01*
X139343444Y-76441585D01*
X139277753Y-76643760D01*
X139244500Y-76853713D01*
X139244500Y-77066286D01*
X139274184Y-77253707D01*
X139277754Y-77276243D01*
X139301881Y-77350499D01*
X139343444Y-77478414D01*
X139439951Y-77667820D01*
X139564890Y-77839786D01*
X139715209Y-77990105D01*
X139715214Y-77990109D01*
X139879793Y-78109682D01*
X139922459Y-78165011D01*
X139928438Y-78234625D01*
X139895833Y-78296420D01*
X139879793Y-78310318D01*
X139715214Y-78429890D01*
X139715209Y-78429894D01*
X139564890Y-78580213D01*
X139439951Y-78752179D01*
X139343444Y-78941585D01*
X139277753Y-79143760D01*
X139244500Y-79353713D01*
X139244500Y-79566286D01*
X139277753Y-79776239D01*
X139343444Y-79978414D01*
X139439951Y-80167820D01*
X139564890Y-80339786D01*
X139715209Y-80490105D01*
X139715214Y-80490109D01*
X139879793Y-80609682D01*
X139922459Y-80665011D01*
X139928438Y-80734625D01*
X139895833Y-80796420D01*
X139879793Y-80810318D01*
X139715214Y-80929890D01*
X139715209Y-80929894D01*
X139564890Y-81080213D01*
X139439951Y-81252179D01*
X139343444Y-81441585D01*
X139277753Y-81643760D01*
X139244500Y-81853713D01*
X139244500Y-82066286D01*
X139277753Y-82276239D01*
X139343444Y-82478414D01*
X139439951Y-82667820D01*
X139564890Y-82839786D01*
X139715213Y-82990109D01*
X139887179Y-83115048D01*
X139887181Y-83115049D01*
X139887184Y-83115051D01*
X140076588Y-83211557D01*
X140278757Y-83277246D01*
X140488713Y-83310500D01*
X140488714Y-83310500D01*
X140951286Y-83310500D01*
X140951287Y-83310500D01*
X141161243Y-83277246D01*
X141363412Y-83211557D01*
X141552816Y-83115051D01*
X141574789Y-83099086D01*
X141724786Y-82990109D01*
X141724788Y-82990106D01*
X141724792Y-82990104D01*
X141875104Y-82839792D01*
X141875106Y-82839788D01*
X141875109Y-82839786D01*
X142000048Y-82667820D01*
X142000047Y-82667820D01*
X142000051Y-82667816D01*
X142096557Y-82478412D01*
X142162246Y-82276243D01*
X142195500Y-82066287D01*
X142195500Y-81853713D01*
X142162246Y-81643757D01*
X142096557Y-81441588D01*
X142000051Y-81252184D01*
X142000049Y-81252181D01*
X142000048Y-81252179D01*
X141875109Y-81080213D01*
X141724792Y-80929896D01*
X141724784Y-80929890D01*
X141560204Y-80810316D01*
X141517540Y-80754989D01*
X141511561Y-80685376D01*
X141544166Y-80623580D01*
X141560199Y-80609686D01*
X141724792Y-80490104D01*
X141875104Y-80339792D01*
X141875106Y-80339788D01*
X141875109Y-80339786D01*
X142000048Y-80167820D01*
X142000047Y-80167820D01*
X142000051Y-80167816D01*
X142096557Y-79978412D01*
X142162246Y-79776243D01*
X142195500Y-79566287D01*
X142195500Y-79353713D01*
X142162246Y-79143757D01*
X142096557Y-78941588D01*
X142000051Y-78752184D01*
X142000049Y-78752181D01*
X142000048Y-78752179D01*
X141875109Y-78580213D01*
X141724792Y-78429896D01*
X141724784Y-78429890D01*
X141560204Y-78310316D01*
X141517540Y-78254989D01*
X141511561Y-78185376D01*
X141544166Y-78123580D01*
X141560199Y-78109686D01*
X141724792Y-77990104D01*
X141875104Y-77839792D01*
X141875106Y-77839788D01*
X141875109Y-77839786D01*
X142000048Y-77667820D01*
X142000047Y-77667820D01*
X142000051Y-77667816D01*
X142096557Y-77478412D01*
X142162246Y-77276243D01*
X142195500Y-77066287D01*
X142195500Y-76853713D01*
X142162246Y-76643757D01*
X142096557Y-76441588D01*
X142000051Y-76252184D01*
X142000049Y-76252181D01*
X142000048Y-76252179D01*
X141875109Y-76080213D01*
X141724792Y-75929896D01*
X141713634Y-75921789D01*
X141560204Y-75810316D01*
X141517540Y-75754989D01*
X141511561Y-75685376D01*
X141544166Y-75623580D01*
X141560199Y-75609686D01*
X141724792Y-75490104D01*
X141875104Y-75339792D01*
X141875106Y-75339788D01*
X141875109Y-75339786D01*
X142000048Y-75167820D01*
X142000047Y-75167820D01*
X142000051Y-75167816D01*
X142096557Y-74978412D01*
X142162246Y-74776243D01*
X142195500Y-74566287D01*
X142195500Y-74353713D01*
X142162246Y-74143757D01*
X142096557Y-73941588D01*
X142000051Y-73752184D01*
X142000049Y-73752181D01*
X142000048Y-73752179D01*
X141875109Y-73580213D01*
X141724792Y-73429896D01*
X141690854Y-73405239D01*
X141560204Y-73310316D01*
X141517540Y-73254989D01*
X141511561Y-73185376D01*
X141544166Y-73123580D01*
X141560199Y-73109686D01*
X141724792Y-72990104D01*
X141875104Y-72839792D01*
X141875106Y-72839788D01*
X141875109Y-72839786D01*
X142000048Y-72667820D01*
X142000047Y-72667820D01*
X142000051Y-72667816D01*
X142096557Y-72478412D01*
X142162246Y-72276243D01*
X142195500Y-72066287D01*
X142195500Y-71853713D01*
X142162246Y-71643757D01*
X142096557Y-71441588D01*
X142000051Y-71252184D01*
X142000049Y-71252181D01*
X142000048Y-71252179D01*
X141875109Y-71080213D01*
X141724792Y-70929896D01*
X141724784Y-70929890D01*
X141560204Y-70810316D01*
X141517540Y-70754989D01*
X141511561Y-70685376D01*
X141544166Y-70623580D01*
X141560199Y-70609686D01*
X141724792Y-70490104D01*
X141875104Y-70339792D01*
X141875106Y-70339788D01*
X141875109Y-70339786D01*
X142000048Y-70167820D01*
X142000047Y-70167820D01*
X142000051Y-70167816D01*
X142096557Y-69978412D01*
X142162246Y-69776243D01*
X142195500Y-69566287D01*
X142195500Y-69353713D01*
X142162246Y-69143757D01*
X142096557Y-68941588D01*
X142000051Y-68752184D01*
X142000049Y-68752181D01*
X142000048Y-68752179D01*
X141875109Y-68580213D01*
X141736294Y-68441398D01*
X141702809Y-68380075D01*
X141707793Y-68310383D01*
X141749665Y-68254450D01*
X141758879Y-68248178D01*
X141764331Y-68244814D01*
X141764334Y-68244814D01*
X141913656Y-68152712D01*
X142037712Y-68028656D01*
X142129814Y-67879334D01*
X142184999Y-67712797D01*
X142195500Y-67610009D01*
X142195499Y-66309992D01*
X142187244Y-66229185D01*
X142184999Y-66207203D01*
X142184998Y-66207200D01*
X142144008Y-66083501D01*
X142129814Y-66040666D01*
X142037712Y-65891344D01*
X141913656Y-65767288D01*
X141764334Y-65675186D01*
X141597797Y-65620001D01*
X141597795Y-65620000D01*
X141495010Y-65609500D01*
X139944998Y-65609500D01*
X139944981Y-65609501D01*
X139842203Y-65620000D01*
X139842200Y-65620001D01*
X139675668Y-65675185D01*
X139675663Y-65675187D01*
X139526342Y-65767289D01*
X139402289Y-65891342D01*
X139310187Y-66040663D01*
X139310186Y-66040666D01*
X139255001Y-66207203D01*
X139255001Y-66207204D01*
X139255000Y-66207204D01*
X139244500Y-66309983D01*
X125950500Y-66309983D01*
X125950500Y-63416233D01*
X125917816Y-63251918D01*
X125899037Y-63206584D01*
X125853704Y-63097137D01*
X125760626Y-62957838D01*
X125760622Y-62957834D01*
X125760620Y-62957831D01*
X125760619Y-62957830D01*
X123342165Y-60539375D01*
X123342161Y-60539372D01*
X123202866Y-60446297D01*
X123202863Y-60446296D01*
X123093416Y-60400962D01*
X123093414Y-60400961D01*
X123048086Y-60382185D01*
X123048074Y-60382182D01*
X122883771Y-60349500D01*
X122883767Y-60349500D01*
X113803651Y-60349500D01*
X113736612Y-60329815D01*
X113715970Y-60313181D01*
X113462843Y-60060053D01*
X113462820Y-60060032D01*
X113136819Y-59734030D01*
X113103334Y-59672707D01*
X113100500Y-59646349D01*
X113100500Y-58726976D01*
X113120185Y-58659937D01*
X113172989Y-58614182D01*
X113200135Y-58606736D01*
X113199932Y-58605876D01*
X113207479Y-58604092D01*
X113207481Y-58604091D01*
X113207483Y-58604091D01*
X113342331Y-58553796D01*
X113457546Y-58467546D01*
X113543796Y-58352331D01*
X113592810Y-58220916D01*
X113634681Y-58164984D01*
X113700145Y-58140566D01*
X113768418Y-58155417D01*
X113796673Y-58176569D01*
X113910213Y-58290109D01*
X114082179Y-58415048D01*
X114082181Y-58415049D01*
X114082184Y-58415051D01*
X114271588Y-58511557D01*
X114473757Y-58577246D01*
X114683713Y-58610500D01*
X114683714Y-58610500D01*
X114896286Y-58610500D01*
X114896287Y-58610500D01*
X115106243Y-58577246D01*
X115308412Y-58511557D01*
X115497816Y-58415051D01*
X115584138Y-58352335D01*
X115669786Y-58290109D01*
X115669788Y-58290106D01*
X115669792Y-58290104D01*
X115820104Y-58139792D01*
X115820106Y-58139788D01*
X115820109Y-58139786D01*
X115945048Y-57967820D01*
X115945047Y-57967820D01*
X115945051Y-57967816D01*
X115949514Y-57959054D01*
X115997488Y-57908259D01*
X116065308Y-57891463D01*
X116131444Y-57913999D01*
X116170486Y-57959056D01*
X116174951Y-57967820D01*
X116299890Y-58139786D01*
X116450213Y-58290109D01*
X116622179Y-58415048D01*
X116622181Y-58415049D01*
X116622184Y-58415051D01*
X116811588Y-58511557D01*
X117013757Y-58577246D01*
X117223713Y-58610500D01*
X117223714Y-58610500D01*
X117436286Y-58610500D01*
X117436287Y-58610500D01*
X117646243Y-58577246D01*
X117848412Y-58511557D01*
X118037816Y-58415051D01*
X118124138Y-58352335D01*
X118209786Y-58290109D01*
X118209788Y-58290106D01*
X118209792Y-58290104D01*
X118360104Y-58139792D01*
X118360106Y-58139788D01*
X118360109Y-58139786D01*
X118445890Y-58021717D01*
X118485051Y-57967816D01*
X118489793Y-57958508D01*
X118537763Y-57907711D01*
X118605583Y-57890911D01*
X118671719Y-57913445D01*
X118710763Y-57958500D01*
X118715373Y-57967547D01*
X118754728Y-58021716D01*
X119387037Y-57389408D01*
X119404075Y-57452993D01*
X119469901Y-57567007D01*
X119562993Y-57660099D01*
X119677007Y-57725925D01*
X119740590Y-57742962D01*
X119108282Y-58375269D01*
X119108282Y-58375270D01*
X119162449Y-58414624D01*
X119351782Y-58511095D01*
X119553870Y-58576757D01*
X119763754Y-58610000D01*
X119976246Y-58610000D01*
X120186127Y-58576757D01*
X120186130Y-58576757D01*
X120388217Y-58511095D01*
X120577554Y-58414622D01*
X120631716Y-58375270D01*
X120631717Y-58375270D01*
X119999408Y-57742962D01*
X120062993Y-57725925D01*
X120177007Y-57660099D01*
X120270099Y-57567007D01*
X120335925Y-57452993D01*
X120352962Y-57389408D01*
X120985270Y-58021717D01*
X120985270Y-58021716D01*
X121024624Y-57967551D01*
X121043751Y-57930013D01*
X134850000Y-57930013D01*
X134850000Y-58520000D01*
X136495879Y-58520000D01*
X136476901Y-58565818D01*
X136450000Y-58701056D01*
X136450000Y-58838944D01*
X136476901Y-58974182D01*
X136495879Y-59020000D01*
X134850001Y-59020000D01*
X134850001Y-59609986D01*
X134860494Y-59712696D01*
X134860494Y-59712698D01*
X134915640Y-59879119D01*
X134915645Y-59879130D01*
X135007680Y-60028340D01*
X135007683Y-60028344D01*
X135131655Y-60152316D01*
X135131659Y-60152319D01*
X135280869Y-60244354D01*
X135280880Y-60244359D01*
X135447302Y-60299505D01*
X135550020Y-60309999D01*
X136899999Y-60309999D01*
X136900000Y-60309998D01*
X136900000Y-59424120D01*
X136945818Y-59443099D01*
X137081056Y-59470000D01*
X137218944Y-59470000D01*
X137354182Y-59443099D01*
X137400000Y-59424120D01*
X137400000Y-60309999D01*
X138749972Y-60309999D01*
X138749986Y-60309998D01*
X138852696Y-60299505D01*
X138852698Y-60299505D01*
X139019119Y-60244359D01*
X139019130Y-60244354D01*
X139168340Y-60152319D01*
X139168344Y-60152316D01*
X139292316Y-60028344D01*
X139292319Y-60028340D01*
X139384354Y-59879130D01*
X139384359Y-59879119D01*
X139439505Y-59712697D01*
X139449999Y-59609986D01*
X139450000Y-59609973D01*
X139450000Y-59020000D01*
X137804121Y-59020000D01*
X137823099Y-58974182D01*
X137850000Y-58838944D01*
X137850000Y-58701056D01*
X137823099Y-58565818D01*
X137804121Y-58520000D01*
X139449999Y-58520000D01*
X139449999Y-57930028D01*
X139449998Y-57930013D01*
X139439505Y-57827303D01*
X139439505Y-57827301D01*
X139384359Y-57660880D01*
X139384354Y-57660869D01*
X139292319Y-57511659D01*
X139292316Y-57511655D01*
X139168344Y-57387683D01*
X139168340Y-57387680D01*
X139019130Y-57295645D01*
X139019119Y-57295640D01*
X138852697Y-57240494D01*
X138749986Y-57230000D01*
X137400000Y-57230000D01*
X137400000Y-58115879D01*
X137354182Y-58096901D01*
X137218944Y-58070000D01*
X137081056Y-58070000D01*
X136945818Y-58096901D01*
X136900000Y-58115879D01*
X136900000Y-57230000D01*
X135550028Y-57230000D01*
X135550012Y-57230001D01*
X135447303Y-57240494D01*
X135447301Y-57240494D01*
X135280880Y-57295640D01*
X135280869Y-57295645D01*
X135131659Y-57387680D01*
X135131655Y-57387683D01*
X135007683Y-57511655D01*
X135007680Y-57511659D01*
X134915645Y-57660869D01*
X134915640Y-57660880D01*
X134860494Y-57827302D01*
X134850000Y-57930013D01*
X121043751Y-57930013D01*
X121074041Y-57870568D01*
X121121095Y-57778217D01*
X121186757Y-57576130D01*
X121186757Y-57576127D01*
X121220000Y-57366246D01*
X121220000Y-57153753D01*
X121186757Y-56943872D01*
X121186757Y-56943869D01*
X121121095Y-56741782D01*
X121024624Y-56552449D01*
X120985270Y-56498282D01*
X120985269Y-56498282D01*
X120352962Y-57130590D01*
X120335925Y-57067007D01*
X120270099Y-56952993D01*
X120177007Y-56859901D01*
X120062993Y-56794075D01*
X119999409Y-56777037D01*
X120631716Y-56144728D01*
X120577550Y-56105375D01*
X120388217Y-56008904D01*
X120186129Y-55943242D01*
X119976246Y-55910000D01*
X119763754Y-55910000D01*
X119553872Y-55943242D01*
X119553869Y-55943242D01*
X119351782Y-56008904D01*
X119162439Y-56105380D01*
X119108282Y-56144727D01*
X119108282Y-56144728D01*
X119740591Y-56777037D01*
X119677007Y-56794075D01*
X119562993Y-56859901D01*
X119469901Y-56952993D01*
X119404075Y-57067007D01*
X119387037Y-57130591D01*
X118754728Y-56498282D01*
X118754727Y-56498282D01*
X118715380Y-56552440D01*
X118715376Y-56552446D01*
X118710760Y-56561505D01*
X118662781Y-56612297D01*
X118594959Y-56629087D01*
X118528826Y-56606543D01*
X118489794Y-56561493D01*
X118485051Y-56552184D01*
X118485049Y-56552181D01*
X118485048Y-56552179D01*
X118360109Y-56380213D01*
X118209786Y-56229890D01*
X118037820Y-56104951D01*
X117848414Y-56008444D01*
X117848413Y-56008443D01*
X117848412Y-56008443D01*
X117646243Y-55942754D01*
X117646241Y-55942753D01*
X117646240Y-55942753D01*
X117484957Y-55917208D01*
X117436287Y-55909500D01*
X117223713Y-55909500D01*
X117175042Y-55917208D01*
X117013760Y-55942753D01*
X116811585Y-56008444D01*
X116622179Y-56104951D01*
X116450213Y-56229890D01*
X116299890Y-56380213D01*
X116174949Y-56552182D01*
X116170484Y-56560946D01*
X116122509Y-56611742D01*
X116054688Y-56628536D01*
X115988553Y-56605998D01*
X115949516Y-56560946D01*
X115945050Y-56552182D01*
X115820109Y-56380213D01*
X115669786Y-56229890D01*
X115497820Y-56104951D01*
X115308414Y-56008444D01*
X115308413Y-56008443D01*
X115308412Y-56008443D01*
X115106243Y-55942754D01*
X115106241Y-55942753D01*
X115106240Y-55942753D01*
X114944957Y-55917208D01*
X114896287Y-55909500D01*
X114683713Y-55909500D01*
X114635042Y-55917208D01*
X114473760Y-55942753D01*
X114271585Y-56008444D01*
X114082179Y-56104951D01*
X113910215Y-56229889D01*
X113796673Y-56343431D01*
X113735350Y-56376915D01*
X113665658Y-56371931D01*
X113609725Y-56330059D01*
X113592810Y-56299082D01*
X113543797Y-56167671D01*
X113543793Y-56167664D01*
X113457547Y-56052455D01*
X113457544Y-56052452D01*
X113342335Y-55966206D01*
X113342328Y-55966202D01*
X113207482Y-55915908D01*
X113207483Y-55915908D01*
X113147883Y-55909501D01*
X113147881Y-55909500D01*
X113147873Y-55909500D01*
X113147864Y-55909500D01*
X111352129Y-55909500D01*
X111352123Y-55909501D01*
X111292516Y-55915908D01*
X111157671Y-55966202D01*
X111157664Y-55966206D01*
X111042455Y-56052452D01*
X111042452Y-56052455D01*
X110956206Y-56167664D01*
X110956202Y-56167671D01*
X110905908Y-56302517D01*
X110904126Y-56310062D01*
X110901853Y-56309525D01*
X110879571Y-56363312D01*
X110822177Y-56403157D01*
X110783024Y-56409500D01*
X109686228Y-56409500D01*
X109521925Y-56442182D01*
X109521917Y-56442184D01*
X109367139Y-56506295D01*
X109227837Y-56599373D01*
X109227834Y-56599376D01*
X107144030Y-58683181D01*
X107082707Y-58716666D01*
X107056349Y-58719500D01*
X105115782Y-58719500D01*
X105048743Y-58699815D01*
X105028101Y-58683181D01*
X104636819Y-58291899D01*
X104603334Y-58230576D01*
X104600500Y-58204218D01*
X104600500Y-56151456D01*
X104600499Y-56151454D01*
X104581241Y-56054635D01*
X104587468Y-55985044D01*
X104630331Y-55929866D01*
X104696221Y-55906622D01*
X104764218Y-55922690D01*
X104794370Y-55946769D01*
X104800725Y-55953719D01*
X104814723Y-55974669D01*
X104874946Y-56034892D01*
X104876815Y-56036936D01*
X104890998Y-56065919D01*
X104906469Y-56094252D01*
X104906920Y-56096420D01*
X104920261Y-56163489D01*
X104920264Y-56163501D01*
X104980602Y-56309172D01*
X104980609Y-56309185D01*
X105068210Y-56440288D01*
X105068213Y-56440292D01*
X105179707Y-56551786D01*
X105179711Y-56551789D01*
X105310814Y-56639390D01*
X105310827Y-56639397D01*
X105456498Y-56699735D01*
X105456503Y-56699737D01*
X105611153Y-56730499D01*
X105611156Y-56730500D01*
X105611158Y-56730500D01*
X105768844Y-56730500D01*
X105768845Y-56730499D01*
X105923497Y-56699737D01*
X106069179Y-56639394D01*
X106200289Y-56551789D01*
X106311789Y-56440289D01*
X106399394Y-56309179D01*
X106402154Y-56302517D01*
X106459735Y-56163501D01*
X106459737Y-56163497D01*
X106490500Y-56008842D01*
X106490500Y-55851158D01*
X106490500Y-55851155D01*
X106490499Y-55851153D01*
X106459738Y-55696510D01*
X106459737Y-55696503D01*
X106451313Y-55676167D01*
X106443845Y-55606700D01*
X106475120Y-55544221D01*
X106535208Y-55508568D01*
X106605033Y-55511061D01*
X106634766Y-55525614D01*
X106726079Y-55586628D01*
X106726092Y-55586635D01*
X106908160Y-55662049D01*
X106908165Y-55662051D01*
X106908169Y-55662051D01*
X106908170Y-55662052D01*
X107101456Y-55700500D01*
X107101459Y-55700500D01*
X107298543Y-55700500D01*
X107428582Y-55674632D01*
X107491835Y-55662051D01*
X107673914Y-55586632D01*
X107837782Y-55477139D01*
X107977139Y-55337782D01*
X108086632Y-55173914D01*
X108162051Y-54991835D01*
X108200500Y-54798541D01*
X108200500Y-54670808D01*
X108220185Y-54603769D01*
X108236819Y-54583127D01*
X109251192Y-53568754D01*
X134849500Y-53568754D01*
X134849500Y-53811245D01*
X134887432Y-54050736D01*
X134962360Y-54281344D01*
X135072448Y-54497401D01*
X135214966Y-54693562D01*
X135214970Y-54693567D01*
X135386432Y-54865029D01*
X135386437Y-54865033D01*
X135557539Y-54989345D01*
X135582602Y-55007554D01*
X135798653Y-55117638D01*
X135798655Y-55117639D01*
X135913959Y-55155103D01*
X136029265Y-55192568D01*
X136140186Y-55210136D01*
X136268755Y-55230500D01*
X136268760Y-55230500D01*
X138031245Y-55230500D01*
X138147347Y-55212110D01*
X138270735Y-55192568D01*
X138501347Y-55117638D01*
X138717398Y-55007554D01*
X138913569Y-54865028D01*
X139085028Y-54693569D01*
X139227554Y-54497398D01*
X139337638Y-54281347D01*
X139412568Y-54050735D01*
X139432821Y-53922860D01*
X139450500Y-53811245D01*
X139450500Y-53568754D01*
X139428432Y-53429431D01*
X139412568Y-53329265D01*
X139337638Y-53098653D01*
X139227554Y-52882602D01*
X139209345Y-52857539D01*
X139085033Y-52686437D01*
X139085029Y-52686432D01*
X138913567Y-52514970D01*
X138913562Y-52514966D01*
X138717401Y-52372448D01*
X138717400Y-52372447D01*
X138717398Y-52372446D01*
X138609372Y-52317404D01*
X138501344Y-52262360D01*
X138270736Y-52187432D01*
X138031245Y-52149500D01*
X138031240Y-52149500D01*
X136268760Y-52149500D01*
X136268755Y-52149500D01*
X136029263Y-52187432D01*
X135798655Y-52262360D01*
X135582598Y-52372448D01*
X135386437Y-52514966D01*
X135386432Y-52514970D01*
X135214970Y-52686432D01*
X135214966Y-52686437D01*
X135072448Y-52882598D01*
X134962360Y-53098655D01*
X134887432Y-53329263D01*
X134849500Y-53568754D01*
X109251192Y-53568754D01*
X109589946Y-53230000D01*
X115090000Y-53230000D01*
X121480000Y-53220000D01*
X121470000Y-49370000D01*
X115100000Y-49370000D01*
X115090000Y-53230000D01*
X109589946Y-53230000D01*
X111105273Y-51714673D01*
X111105277Y-51714669D01*
X111176465Y-51608127D01*
X111225501Y-51489744D01*
X111250500Y-51364069D01*
X111250500Y-50234935D01*
X111270185Y-50167896D01*
X111271366Y-50166090D01*
X111309394Y-50109179D01*
X111369737Y-49963497D01*
X111400500Y-49808842D01*
X111400500Y-49651158D01*
X111400500Y-49651155D01*
X111400499Y-49651153D01*
X111369738Y-49496510D01*
X111369737Y-49496503D01*
X111336971Y-49417398D01*
X111309397Y-49350827D01*
X111309390Y-49350814D01*
X111221789Y-49219711D01*
X111221786Y-49219707D01*
X111110292Y-49108213D01*
X111110288Y-49108210D01*
X110979185Y-49020609D01*
X110979172Y-49020602D01*
X110833501Y-48960264D01*
X110833489Y-48960261D01*
X110678845Y-48929500D01*
X110678842Y-48929500D01*
X110521158Y-48929500D01*
X110521155Y-48929500D01*
X110366510Y-48960261D01*
X110366498Y-48960264D01*
X110220827Y-49020602D01*
X110220814Y-49020609D01*
X110089711Y-49108210D01*
X110089707Y-49108213D01*
X109978213Y-49219707D01*
X109978210Y-49219711D01*
X109890609Y-49350814D01*
X109890602Y-49350827D01*
X109830264Y-49496498D01*
X109830261Y-49496510D01*
X109799500Y-49651153D01*
X109799500Y-49808846D01*
X109830261Y-49963489D01*
X109830264Y-49963501D01*
X109890602Y-50109172D01*
X109890606Y-50109179D01*
X109928602Y-50166044D01*
X109949480Y-50232721D01*
X109949500Y-50234935D01*
X109949500Y-50979192D01*
X109929815Y-51046231D01*
X109913181Y-51066873D01*
X107316873Y-53663181D01*
X107255550Y-53696666D01*
X107229192Y-53699500D01*
X107101457Y-53699500D01*
X106908170Y-53737947D01*
X106908160Y-53737950D01*
X106726092Y-53813364D01*
X106726079Y-53813371D01*
X106562218Y-53922860D01*
X106562214Y-53922863D01*
X106422863Y-54062214D01*
X106422860Y-54062218D01*
X106313371Y-54226079D01*
X106313364Y-54226092D01*
X106237950Y-54408160D01*
X106237947Y-54408170D01*
X106216117Y-54517918D01*
X106183732Y-54579829D01*
X106123016Y-54614403D01*
X106053247Y-54610663D01*
X105996575Y-54569796D01*
X105970993Y-54504778D01*
X105970500Y-54493726D01*
X105970500Y-49540808D01*
X105990185Y-49473769D01*
X106006819Y-49453127D01*
X106971192Y-48488754D01*
X134849500Y-48488754D01*
X134849500Y-48731245D01*
X134887432Y-48970736D01*
X134962360Y-49201344D01*
X134962362Y-49201347D01*
X135048295Y-49370000D01*
X135072448Y-49417401D01*
X135214966Y-49613562D01*
X135214970Y-49613567D01*
X135386432Y-49785029D01*
X135386437Y-49785033D01*
X135557539Y-49909345D01*
X135582602Y-49927554D01*
X135798653Y-50037638D01*
X135798655Y-50037639D01*
X135913959Y-50075103D01*
X136029265Y-50112568D01*
X136140186Y-50130136D01*
X136268755Y-50150500D01*
X136268760Y-50150500D01*
X138031245Y-50150500D01*
X138147347Y-50132110D01*
X138270735Y-50112568D01*
X138501347Y-50037638D01*
X138717398Y-49927554D01*
X138913569Y-49785028D01*
X139085028Y-49613569D01*
X139227554Y-49417398D01*
X139337638Y-49201347D01*
X139412568Y-48970735D01*
X139432110Y-48847347D01*
X139450500Y-48731245D01*
X139450500Y-48488754D01*
X139428432Y-48349431D01*
X139412568Y-48249265D01*
X139337638Y-48018653D01*
X139227554Y-47802602D01*
X139209345Y-47777539D01*
X139085033Y-47606437D01*
X139085029Y-47606432D01*
X138913567Y-47434970D01*
X138913562Y-47434966D01*
X138717401Y-47292448D01*
X138717400Y-47292447D01*
X138717398Y-47292446D01*
X138609372Y-47237404D01*
X138501344Y-47182360D01*
X138270736Y-47107432D01*
X138031245Y-47069500D01*
X138031240Y-47069500D01*
X136268760Y-47069500D01*
X136268755Y-47069500D01*
X136029263Y-47107432D01*
X135798655Y-47182360D01*
X135582598Y-47292448D01*
X135386437Y-47434966D01*
X135386432Y-47434970D01*
X135214970Y-47606432D01*
X135214966Y-47606437D01*
X135072448Y-47802598D01*
X134962360Y-48018655D01*
X134887432Y-48249263D01*
X134849500Y-48488754D01*
X106971192Y-48488754D01*
X108163127Y-47296819D01*
X108224450Y-47263334D01*
X108250808Y-47260500D01*
X112958527Y-47260500D01*
X113025566Y-47280185D01*
X113061629Y-47315609D01*
X113118210Y-47400288D01*
X113118213Y-47400292D01*
X113229707Y-47511786D01*
X113229711Y-47511789D01*
X113360814Y-47599390D01*
X113360827Y-47599397D01*
X113506498Y-47659735D01*
X113506503Y-47659737D01*
X113661153Y-47690499D01*
X113661156Y-47690500D01*
X113661158Y-47690500D01*
X113818844Y-47690500D01*
X113818845Y-47690499D01*
X113973497Y-47659737D01*
X114119179Y-47599394D01*
X114250289Y-47511789D01*
X114361789Y-47400289D01*
X114449394Y-47269179D01*
X114509737Y-47123497D01*
X114540500Y-46968842D01*
X114540500Y-46811158D01*
X114540500Y-46811155D01*
X114540499Y-46811153D01*
X114509738Y-46656510D01*
X114509737Y-46656503D01*
X114509735Y-46656498D01*
X114449397Y-46510827D01*
X114449390Y-46510814D01*
X114361789Y-46379711D01*
X114361786Y-46379707D01*
X114250292Y-46268213D01*
X114250288Y-46268210D01*
X114119185Y-46180609D01*
X114119172Y-46180602D01*
X113973498Y-46120263D01*
X113973488Y-46120260D01*
X113890082Y-46103670D01*
X113845382Y-46085155D01*
X113768126Y-46033534D01*
X113649744Y-45984499D01*
X113649738Y-45984497D01*
X113524071Y-45959500D01*
X113524069Y-45959500D01*
X107865931Y-45959500D01*
X107865929Y-45959500D01*
X107740261Y-45984497D01*
X107740255Y-45984499D01*
X107621870Y-46033535D01*
X107515331Y-46104722D01*
X107515324Y-46104728D01*
X104814726Y-48805326D01*
X104757404Y-48891117D01*
X104757402Y-48891119D01*
X104743539Y-48911865D01*
X104743533Y-48911875D01*
X104694499Y-49030255D01*
X104694497Y-49030261D01*
X104669500Y-49155928D01*
X104669500Y-55624071D01*
X104670097Y-55630134D01*
X104667439Y-55630395D01*
X104662171Y-55688521D01*
X104619245Y-55743650D01*
X104553328Y-55766819D01*
X104485350Y-55750673D01*
X104443731Y-55711879D01*
X104377142Y-55612222D01*
X104377136Y-55612214D01*
X104237785Y-55472863D01*
X104237781Y-55472860D01*
X104073920Y-55363371D01*
X104073907Y-55363364D01*
X103891839Y-55287950D01*
X103891829Y-55287947D01*
X103698543Y-55249500D01*
X103698541Y-55249500D01*
X103501459Y-55249500D01*
X103501457Y-55249500D01*
X103308170Y-55287947D01*
X103308160Y-55287950D01*
X103126092Y-55363364D01*
X103126079Y-55363371D01*
X102962218Y-55472860D01*
X102962214Y-55472863D01*
X102822863Y-55612214D01*
X102822860Y-55612218D01*
X102713371Y-55776079D01*
X102713364Y-55776092D01*
X102637950Y-55958160D01*
X102637947Y-55958170D01*
X102599500Y-56151456D01*
X102599500Y-56151459D01*
X102599500Y-58768541D01*
X102599500Y-58768543D01*
X102599499Y-58768543D01*
X102637947Y-58961829D01*
X102637950Y-58961839D01*
X102713364Y-59143907D01*
X102713371Y-59143920D01*
X102822860Y-59307781D01*
X102822863Y-59307785D01*
X102966537Y-59451459D01*
X102966559Y-59451479D01*
X103463181Y-59948101D01*
X103496666Y-60009424D01*
X103499500Y-60035782D01*
X103499500Y-60218541D01*
X103499500Y-60218543D01*
X103499499Y-60218543D01*
X103537947Y-60411829D01*
X103537949Y-60411834D01*
X103555020Y-60453049D01*
X103562487Y-60522518D01*
X103531212Y-60584997D01*
X103471122Y-60620649D01*
X103440458Y-60624500D01*
X102756627Y-60624500D01*
X102642152Y-60639571D01*
X102533229Y-60684688D01*
X102463759Y-60692157D01*
X102438325Y-60684688D01*
X102403502Y-60670264D01*
X102403494Y-60670261D01*
X102248845Y-60639500D01*
X102248842Y-60639500D01*
X102091158Y-60639500D01*
X102091155Y-60639500D01*
X101936510Y-60670261D01*
X101936498Y-60670264D01*
X101790827Y-60730602D01*
X101790814Y-60730609D01*
X101659711Y-60818210D01*
X101659707Y-60818213D01*
X101548213Y-60929707D01*
X101548210Y-60929711D01*
X101460609Y-61060814D01*
X101460602Y-61060827D01*
X101400264Y-61206498D01*
X101400261Y-61206510D01*
X101369500Y-61361153D01*
X61770500Y-61361153D01*
X61770500Y-55891735D01*
X64720742Y-55891735D01*
X72780000Y-55960000D01*
X72762246Y-47364815D01*
X64759119Y-47381345D01*
X64759345Y-47514626D01*
X64759344Y-47515407D01*
X64721642Y-55696502D01*
X64720742Y-55891735D01*
X61770500Y-55891735D01*
X61770500Y-38596078D01*
X61790185Y-38529039D01*
X61842989Y-38483284D01*
X61912147Y-38473340D01*
X61975703Y-38502365D01*
X62011541Y-38555123D01*
X62106574Y-38826711D01*
X62262541Y-39150579D01*
X62262543Y-39150582D01*
X62453794Y-39454956D01*
X62677921Y-39736003D01*
X62932106Y-39990188D01*
X63213153Y-40214315D01*
X63517527Y-40405566D01*
X63841401Y-40561536D01*
X64096228Y-40650703D01*
X64180689Y-40680258D01*
X64180701Y-40680262D01*
X64531161Y-40760252D01*
X64888369Y-40800499D01*
X64888370Y-40800500D01*
X64888373Y-40800500D01*
X65247848Y-40800500D01*
X65247848Y-40800499D01*
X65605057Y-40760252D01*
X65955517Y-40680262D01*
X66294817Y-40561536D01*
X66618691Y-40405566D01*
X66923065Y-40214315D01*
X67204112Y-39990188D01*
X67458297Y-39736003D01*
X67682424Y-39454956D01*
X67712997Y-39406299D01*
X71230000Y-39406299D01*
X71230000Y-40037500D01*
X72115879Y-40037500D01*
X72096901Y-40083318D01*
X72070000Y-40218556D01*
X72070000Y-40356444D01*
X72096901Y-40491682D01*
X72115879Y-40537500D01*
X71230000Y-40537500D01*
X71230000Y-41168700D01*
X71267920Y-41408118D01*
X71342827Y-41638659D01*
X71452874Y-41854636D01*
X71595356Y-42050745D01*
X71766754Y-42222143D01*
X71962863Y-42364625D01*
X72178840Y-42474672D01*
X72409381Y-42549580D01*
X72520000Y-42567100D01*
X72520000Y-40941620D01*
X72565818Y-40960599D01*
X72701056Y-40987500D01*
X72838944Y-40987500D01*
X72974182Y-40960599D01*
X73020000Y-40941620D01*
X73020000Y-42567099D01*
X73130618Y-42549580D01*
X73361159Y-42474672D01*
X73577136Y-42364625D01*
X73773245Y-42222143D01*
X73944643Y-42050745D01*
X74087125Y-41854636D01*
X74197172Y-41638659D01*
X74272079Y-41408118D01*
X74310000Y-41168700D01*
X74310000Y-40537500D01*
X73424121Y-40537500D01*
X73443099Y-40491682D01*
X73470000Y-40356444D01*
X73470000Y-40218556D01*
X73443099Y-40083318D01*
X73424121Y-40037500D01*
X74310000Y-40037500D01*
X74310000Y-39406299D01*
X74272079Y-39166881D01*
X74197172Y-38936340D01*
X74097451Y-38740628D01*
X74087125Y-38720363D01*
X74063235Y-38687482D01*
X76309500Y-38687482D01*
X76309500Y-41887517D01*
X76320000Y-41990296D01*
X76320001Y-41990298D01*
X76375186Y-42156835D01*
X76467288Y-42306156D01*
X76591344Y-42430212D01*
X76740665Y-42522314D01*
X76907202Y-42577499D01*
X77009990Y-42588000D01*
X77009995Y-42588000D01*
X78690005Y-42588000D01*
X78690010Y-42588000D01*
X78792798Y-42577499D01*
X78959335Y-42522314D01*
X79108656Y-42430212D01*
X79232712Y-42306156D01*
X79324814Y-42156835D01*
X79379999Y-41990298D01*
X79390500Y-41887510D01*
X79390500Y-38687490D01*
X79379999Y-38584702D01*
X79324814Y-38418165D01*
X79232712Y-38268844D01*
X79108656Y-38144788D01*
X78959335Y-38052686D01*
X78792798Y-37997501D01*
X78792796Y-37997500D01*
X78690017Y-37987000D01*
X78690010Y-37987000D01*
X77009990Y-37987000D01*
X77009982Y-37987000D01*
X76907203Y-37997500D01*
X76907202Y-37997501D01*
X76824669Y-38024849D01*
X76740667Y-38052685D01*
X76740662Y-38052687D01*
X76591342Y-38144789D01*
X76467289Y-38268842D01*
X76375187Y-38418162D01*
X76375186Y-38418165D01*
X76320001Y-38584702D01*
X76320001Y-38584703D01*
X76320000Y-38584703D01*
X76309500Y-38687482D01*
X74063235Y-38687482D01*
X73944643Y-38524254D01*
X73773245Y-38352856D01*
X73577136Y-38210374D01*
X73361157Y-38100327D01*
X73130614Y-38025419D01*
X73020000Y-38007899D01*
X73020000Y-39633379D01*
X72974182Y-39614401D01*
X72838944Y-39587500D01*
X72701056Y-39587500D01*
X72565818Y-39614401D01*
X72520000Y-39633379D01*
X72520000Y-38007899D01*
X72519999Y-38007899D01*
X72409385Y-38025419D01*
X72178842Y-38100327D01*
X71962863Y-38210374D01*
X71766754Y-38352856D01*
X71595356Y-38524254D01*
X71452874Y-38720363D01*
X71342827Y-38936340D01*
X71267920Y-39166881D01*
X71230000Y-39406299D01*
X67712997Y-39406299D01*
X67873675Y-39150582D01*
X68029645Y-38826708D01*
X68148371Y-38487408D01*
X68228361Y-38136948D01*
X68268609Y-37779736D01*
X68268609Y-37420264D01*
X68228361Y-37063052D01*
X68148371Y-36712592D01*
X68029645Y-36373292D01*
X67873675Y-36049418D01*
X67682424Y-35745044D01*
X67458297Y-35463997D01*
X67204112Y-35209812D01*
X66923065Y-34985685D01*
X66618691Y-34794434D01*
X66618688Y-34794432D01*
X66294820Y-34638465D01*
X65955528Y-34519741D01*
X65955516Y-34519737D01*
X65605060Y-34439748D01*
X65605044Y-34439746D01*
X65247849Y-34399500D01*
X65247845Y-34399500D01*
X64888373Y-34399500D01*
X64888368Y-34399500D01*
X64531173Y-34439746D01*
X64531157Y-34439748D01*
X64180701Y-34519737D01*
X64180689Y-34519741D01*
X63841397Y-34638465D01*
X63517529Y-34794432D01*
X63213154Y-34985684D01*
X62932106Y-35209811D01*
X62677920Y-35463997D01*
X62453793Y-35745045D01*
X62262541Y-36049420D01*
X62106574Y-36373288D01*
X62011541Y-36644876D01*
X61970820Y-36701652D01*
X61905867Y-36727399D01*
X61837305Y-36713943D01*
X61786902Y-36665555D01*
X61770500Y-36603921D01*
X61770500Y-34194500D01*
X61790185Y-34127461D01*
X61842989Y-34081706D01*
X61894500Y-34070500D01*
X143415500Y-34070500D01*
X143482539Y-34090185D01*
G37*
%TD.AperFunction*%
%TD*%
M02*
