%TF.GenerationSoftware,KiCad,Pcbnew,10.0.3*%
%TF.CreationDate,2026-10-08T01:14:11+07:00*%
%TF.ProjectId,actuator-v1,61637475-6174-46f7-922d-76312e6b6963,rev?*%
%TF.SameCoordinates,Original*%
%TF.FileFunction,Paste,Top*%
%TF.FilePolarity,Positive*%
%FSLAX46Y46*%
G04 Gerber Fmt 4.6, Leading zero omitted, Abs format (unit mm)*
G04 Created by KiCad (PCBNEW 10.0.3) date 2026-10-08 01:14:11*
%MOMM*%
%LPD*%
G01*
G04 APERTURE LIST*
G04 Aperture macros list*
%AMRoundRect*
0 Rectangle with rounded corners*
0 $1 Rounding radius*
0 $2 $3 $4 $5 $6 $7 $8 $9 X,Y pos of 4 corners*
0 Add a 4 corners polygon primitive as box body*
4,1,4,$2,$3,$4,$5,$6,$7,$8,$9,$2,$3,0*
0 Add four circle primitives for the rounded corners*
1,1,$1+$1,$2,$3*
1,1,$1+$1,$4,$5*
1,1,$1+$1,$6,$7*
1,1,$1+$1,$8,$9*
0 Add four rect primitives between the rounded corners*
20,1,$1+$1,$2,$3,$4,$5,0*
20,1,$1+$1,$4,$5,$6,$7,0*
20,1,$1+$1,$6,$7,$8,$9,0*
20,1,$1+$1,$8,$9,$2,$3,0*%
%AMRotRect*
0 Rectangle, with rotation*
0 The origin of the aperture is its center*
0 $1 length*
0 $2 width*
0 $3 Rotation angle, in degrees counterclockwise*
0 Add horizontal line*
21,1,$1,$2,0,0,$3*%
G04 Aperture macros list end*
%ADD10RoundRect,0.085000X0.340000X0.365000X-0.340000X0.365000X-0.340000X-0.365000X0.340000X-0.365000X0*%
%ADD11RoundRect,0.250000X-0.475000X0.337500X-0.475000X-0.337500X0.475000X-0.337500X0.475000X0.337500X0*%
%ADD12RoundRect,0.250000X0.450000X-0.262500X0.450000X0.262500X-0.450000X0.262500X-0.450000X-0.262500X0*%
%ADD13RoundRect,0.085000X0.365000X-0.340000X0.365000X0.340000X-0.365000X0.340000X-0.365000X-0.340000X0*%
%ADD14RoundRect,0.073750X0.556250X0.221250X-0.556250X0.221250X-0.556250X-0.221250X0.556250X-0.221250X0*%
%ADD15RoundRect,0.150000X-0.512500X-0.150000X0.512500X-0.150000X0.512500X0.150000X-0.512500X0.150000X0*%
%ADD16RoundRect,0.085000X-0.365000X0.340000X-0.365000X-0.340000X0.365000X-0.340000X0.365000X0.340000X0*%
%ADD17RoundRect,0.250000X0.300000X-0.300000X0.300000X0.300000X-0.300000X0.300000X-0.300000X-0.300000X0*%
%ADD18RoundRect,0.250000X-0.350000X0.450000X-0.350000X-0.450000X0.350000X-0.450000X0.350000X0.450000X0*%
%ADD19RoundRect,0.085000X-0.340000X-0.365000X0.340000X-0.365000X0.340000X0.365000X-0.340000X0.365000X0*%
%ADD20RoundRect,0.250000X-0.300000X-0.300000X0.300000X-0.300000X0.300000X0.300000X-0.300000X0.300000X0*%
%ADD21RoundRect,0.085000X-0.017678X0.498510X-0.498510X0.017678X0.017678X-0.498510X0.498510X-0.017678X0*%
%ADD22RoundRect,0.218750X0.218750X0.256250X-0.218750X0.256250X-0.218750X-0.256250X0.218750X-0.256250X0*%
%ADD23RoundRect,0.085000X-0.498510X-0.017678X-0.017678X-0.498510X0.498510X0.017678X0.017678X0.498510X0*%
%ADD24R,1.346200X0.889000*%
%ADD25RotRect,1.000000X1.800000X225.000000*%
%ADD26RoundRect,0.075000X-0.662500X-0.075000X0.662500X-0.075000X0.662500X0.075000X-0.662500X0.075000X0*%
%ADD27RoundRect,0.075000X-0.075000X-0.662500X0.075000X-0.662500X0.075000X0.662500X-0.075000X0.662500X0*%
%ADD28R,1.981200X0.558800*%
%ADD29R,1.500000X1.500000*%
G04 APERTURE END LIST*
D10*
%TO.C,C16*%
X126045000Y-51420000D03*
X124495000Y-51420000D03*
%TD*%
D11*
%TO.C,C4*%
X87100000Y-51962500D03*
X87100000Y-54037500D03*
%TD*%
D12*
%TO.C,R9*%
X122800000Y-54265000D03*
X122800000Y-52440000D03*
%TD*%
D13*
%TO.C,C14*%
X107150000Y-52050000D03*
X107150000Y-50500000D03*
%TD*%
D14*
%TO.C,D4*%
X131000000Y-52380000D03*
X131000000Y-50480000D03*
X129040000Y-51430000D03*
%TD*%
D15*
%TO.C,U1*%
X81215000Y-52050000D03*
X81215000Y-53000000D03*
X81215000Y-53950000D03*
X83490000Y-53950000D03*
X83490000Y-52050000D03*
%TD*%
D16*
%TO.C,R3*%
X104160000Y-69915000D03*
X104160000Y-71465000D03*
%TD*%
D17*
%TO.C,D1*%
X77785000Y-49570000D03*
X77785000Y-46770000D03*
%TD*%
D13*
%TO.C,C13*%
X98760000Y-62380000D03*
X98760000Y-60830000D03*
%TD*%
%TO.C,C6*%
X94480000Y-66500000D03*
X94480000Y-64950000D03*
%TD*%
D18*
%TO.C,X2*%
X96110000Y-64930000D03*
X96110000Y-67130000D03*
X97810000Y-67130000D03*
X97810000Y-64930000D03*
%TD*%
D13*
%TO.C,C17*%
X127410000Y-50237500D03*
X127410000Y-48687500D03*
%TD*%
D19*
%TO.C,C7*%
X96280000Y-68850000D03*
X97830000Y-68850000D03*
%TD*%
%TO.C,R2*%
X111790000Y-65710000D03*
X113340000Y-65710000D03*
%TD*%
%TO.C,C5*%
X114570000Y-65700000D03*
X116120000Y-65700000D03*
%TD*%
D20*
%TO.C,D2*%
X81090000Y-49732500D03*
X83890000Y-49732500D03*
%TD*%
D19*
%TO.C,C15*%
X112070000Y-54620000D03*
X113620000Y-54620000D03*
%TD*%
D21*
%TO.C,R4*%
X114748008Y-74451992D03*
X113651992Y-75548008D03*
%TD*%
D22*
%TO.C,D3*%
X87880000Y-46360000D03*
X86305000Y-46360000D03*
%TD*%
D16*
%TO.C,C3*%
X85290000Y-52072500D03*
X85290000Y-53622500D03*
%TD*%
%TO.C,C2*%
X79450000Y-52072500D03*
X79450000Y-53622500D03*
%TD*%
D12*
%TO.C,R8*%
X122800000Y-50375000D03*
X122800000Y-48550000D03*
%TD*%
D19*
%TO.C,R1*%
X86295000Y-47950000D03*
X87845000Y-47950000D03*
%TD*%
D23*
%TO.C,C8*%
X96853984Y-54273984D03*
X97950000Y-55370000D03*
%TD*%
D24*
%TO.C,L1*%
X116010000Y-50050000D03*
X116010000Y-52550000D03*
X120559998Y-52550000D03*
X120559998Y-50050000D03*
%TD*%
D25*
%TO.C,X1*%
X97462234Y-58457766D03*
X99230000Y-56690000D03*
%TD*%
D10*
%TO.C,R7*%
X113780000Y-48010000D03*
X112230000Y-48010000D03*
%TD*%
D23*
%TO.C,C9*%
X95113984Y-56133984D03*
X96210000Y-57230000D03*
%TD*%
D11*
%TO.C,C1*%
X77710000Y-51962500D03*
X77710000Y-54037500D03*
%TD*%
D26*
%TO.C,U2*%
X101055000Y-59300000D03*
X101055000Y-59800000D03*
X101055000Y-60300000D03*
X101055000Y-60800000D03*
X101055000Y-61300000D03*
X101055000Y-61800000D03*
X101055000Y-62300000D03*
X101055000Y-62800000D03*
X101055000Y-63300000D03*
X101055000Y-63800000D03*
X101055000Y-64300000D03*
X101055000Y-64800000D03*
D27*
X102467500Y-66212500D03*
X102967500Y-66212500D03*
X103467500Y-66212500D03*
X103967500Y-66212500D03*
X104467500Y-66212500D03*
X104967500Y-66212500D03*
X105467500Y-66212500D03*
X105967500Y-66212500D03*
X106467500Y-66212500D03*
X106967500Y-66212500D03*
X107467500Y-66212500D03*
X107967500Y-66212500D03*
D26*
X109380000Y-64800000D03*
X109380000Y-64300000D03*
X109380000Y-63800000D03*
X109380000Y-63300000D03*
X109380000Y-62800000D03*
X109380000Y-62300000D03*
X109380000Y-61800000D03*
X109380000Y-61300000D03*
X109380000Y-60800000D03*
X109380000Y-60300000D03*
X109380000Y-59800000D03*
X109380000Y-59300000D03*
D27*
X107967500Y-57887500D03*
X107467500Y-57887500D03*
X106967500Y-57887500D03*
X106467500Y-57887500D03*
X105967500Y-57887500D03*
X105467500Y-57887500D03*
X104967500Y-57887500D03*
X104467500Y-57887500D03*
X103967500Y-57887500D03*
X103467500Y-57887500D03*
X102967500Y-57887500D03*
X102467500Y-57887500D03*
%TD*%
D13*
%TO.C,C12*%
X97410000Y-62380000D03*
X97410000Y-60830000D03*
%TD*%
D28*
%TO.C,IC1*%
X109045600Y-49450000D03*
X109045600Y-50720000D03*
X109045600Y-51990000D03*
X109045600Y-53260000D03*
X113770000Y-53260000D03*
X113770000Y-51990000D03*
X113770000Y-50720000D03*
X113770000Y-49450000D03*
%TD*%
D16*
%TO.C,R5*%
X106280000Y-70050000D03*
X106280000Y-71600000D03*
%TD*%
D29*
%TO.C,SW1*%
X121120000Y-68510000D03*
X113320000Y-68510000D03*
%TD*%
D21*
%TO.C,R6*%
X115548008Y-71451992D03*
X114451992Y-72548008D03*
%TD*%
D13*
%TO.C,C18*%
X127370000Y-54127500D03*
X127370000Y-52577500D03*
%TD*%
M02*
